<svg width="46" height="47" viewBox="0 0 46 47" fill="none" xmlns="http://www.w3.org/2000/svg">
<rect opacity="0.6" y="0.985352" width="46" height="46" rx="23" fill="white"/>
<g clip-path="url(#clip0_1504_5)">
<path fill-rule="evenodd" clip-rule="evenodd" d="M23 6.98535C32.3889 6.98535 40 14.5965 40 23.9854C40 33.374 32.3889 40.9854 23 40.9854C13.6111 40.9854 6 33.374 6 23.9854C6 14.5965 13.6111 6.98535 23 6.98535ZM18.0881 25.3505C17.9935 25.2896 17.9026 25.2196 17.8198 25.1367C17.5027 24.8196 17.3501 24.4024 17.3576 23.9871C17.3504 23.5715 17.5033 23.1541 17.8202 22.8372C17.9027 22.7542 17.9936 22.6843 18.0882 22.6234L24.4401 16.2719C25.0601 15.6526 26.0651 15.6523 26.685 16.2722C27.305 16.8919 27.305 17.8969 26.685 18.5171L21.215 23.9872L26.7127 29.4856C27.3326 30.1053 27.3326 31.1106 26.7127 31.7306C26.4026 32.0406 25.9966 32.1956 25.5905 32.1956C25.1843 32.1956 24.7781 32.0406 24.4682 31.7306L18.0881 25.3505Z" fill="white"/>
<path d="M17.8198 25.1367C17.9026 25.2196 17.9935 25.2896 18.0881 25.3505L24.4682 31.7306C24.7781 32.0406 25.1843 32.1956 25.5905 32.1956C25.9966 32.1956 26.4026 32.0406 26.7127 31.7306C27.3326 31.1106 27.3326 30.1053 26.7127 29.4856L21.215 23.9872L26.685 18.5171C27.305 17.8969 27.305 16.8919 26.685 16.2722C26.0651 15.6523 25.0601 15.6526 24.4401 16.2719L18.0882 22.6234C17.9936 22.6843 17.9027 22.7542 17.8202 22.8372C17.5033 23.1541 17.3504 23.5715 17.3576 23.9871C17.3501 24.4024 17.5027 24.8196 17.8198 25.1367Z" fill="#D9FADD"/>
</g>
<defs>
<clipPath id="clip0_1504_5">
<rect width="34" height="34" fill="white" transform="matrix(-1 0 0 1 40 6.98535)"/>
</clipPath>
</defs>
</svg>
