<svg width="119" height="22" viewBox="0 0 119 22" fill="none" xmlns="http://www.w3.org/2000/svg">
<path d="M1.485 14.9854V4.48535H6.6C7.83 4.48535 8.72 4.74035 9.27 5.25035C9.83 5.76035 10.11 6.57535 10.11 7.69535C10.11 8.81535 9.83 9.63035 9.27 10.1404C8.72 10.6504 7.83 10.9054 6.6 10.9054H2.52V14.9854H1.485ZM6.555 5.46035H2.52V9.91535H6.555C7.435 9.91535 8.075 9.74035 8.475 9.39035C8.875 9.04035 9.075 8.47535 9.075 7.69535C9.075 6.91535 8.875 6.35035 8.475 6.00035C8.075 5.64035 7.435 5.46035 6.555 5.46035ZM11.4763 14.9854H10.3663L15.3613 4.48535H16.5913L21.5863 14.9854H20.4763L19.2613 12.4354H12.6763L11.4763 14.9854ZM15.9763 5.52035L13.1563 11.4604L18.7963 11.4454L15.9763 5.52035ZM22.4154 12.1804H23.4954C23.6954 12.8504 24.0904 13.3404 24.6804 13.6504C25.2704 13.9504 26.1104 14.1004 27.2004 14.1004C29.4104 14.1004 30.5154 13.4804 30.5154 12.2404C30.5154 11.6604 30.2404 11.2104 29.6904 10.8904C29.1504 10.5704 28.1904 10.3054 26.8104 10.0954C25.2304 9.84535 24.1254 9.51035 23.4954 9.09035C22.8754 8.67035 22.5654 8.05035 22.5654 7.23035C22.5654 5.34035 23.9954 4.39535 26.8554 4.39535C28.2254 4.39535 29.2704 4.62535 29.9904 5.08535C30.7104 5.53535 31.1654 6.27035 31.3554 7.29035H30.2754C30.0954 6.62035 29.7254 6.13535 29.1654 5.83535C28.6054 5.52535 27.8104 5.37035 26.7804 5.37035C24.6504 5.37035 23.5854 5.96535 23.5854 7.15535C23.5854 7.68535 23.8404 8.09535 24.3504 8.38535C24.8604 8.66535 25.7554 8.90535 27.0354 9.10535C28.7254 9.39535 29.8954 9.76035 30.5454 10.2004C31.2054 10.6404 31.5354 11.2904 31.5354 12.1504C31.5354 14.1104 30.0504 15.0904 27.0804 15.0904C25.6704 15.0904 24.5954 14.8604 23.8554 14.4004C23.1154 13.9404 22.6354 13.2004 22.4154 12.1804ZM33.2898 9.73535C33.2898 7.85535 33.7148 6.49535 34.5648 5.65535C35.4148 4.80535 36.7748 4.38035 38.6448 4.38035C40.1548 4.38035 41.3248 4.65535 42.1548 5.20535C42.9948 5.75535 43.5398 6.61535 43.7898 7.78535H42.7248C42.4748 6.95535 42.0148 6.34535 41.3448 5.95535C40.6848 5.56535 39.7848 5.37035 38.6448 5.37035C37.1348 5.37035 36.0348 5.71535 35.3448 6.40535C34.6648 7.09535 34.3248 8.20535 34.3248 9.73535C34.3248 11.2654 34.6648 12.3754 35.3448 13.0654C36.0348 13.7554 37.1348 14.1004 38.6448 14.1004C39.7848 14.1004 40.6848 13.9054 41.3448 13.5154C42.0148 13.1154 42.4748 12.4954 42.7248 11.6554H43.8048C43.5448 12.8454 42.9948 13.7154 42.1548 14.2654C41.3248 14.8154 40.1548 15.0904 38.6448 15.0904C36.7748 15.0904 35.4148 14.6654 34.5648 13.8154C33.7148 12.9654 33.2898 11.6054 33.2898 9.73535ZM45.9734 14.9854H44.8634L49.8584 4.48535H51.0884L56.0834 14.9854H54.9734L53.7584 12.4354H47.1734L45.9734 14.9854ZM50.4734 5.52035L47.6534 11.4604L53.2934 11.4454L50.4734 5.52035ZM57.984 14.9854V4.48535H59.019V14.0104H66.099V14.9854H57.984ZM76.4435 14.9854L71.5235 4.48535H72.6335L77.0585 13.9504L81.4685 4.48535H82.5785L77.6735 14.9854H76.4435ZM92.988 14.9854H84.483V4.48535H92.988V5.46035H85.518V9.27035H92.238V10.2004H85.518V14.0104H92.988V14.9854ZM95.5866 4.48535H96.6216L104.422 13.4854V4.48535H105.457V14.9854H104.422L96.6216 5.98535V14.9854H95.5866V4.48535ZM117.913 5.46035H113.188V14.9854H112.153V5.46035H107.428V4.48535H117.913V5.46035Z" fill="#78C081"/>
<rect y="20.9854" width="119" height="1" rx="0.5" fill="#78C081"/>
</svg>
