<svg width="30" height="30" viewBox="0 0 30 30" fill="none" xmlns="http://www.w3.org/2000/svg">
<rect width="30" height="30" rx="10" fill="white"/>
<g clip-path="url(#clip0_92_470)">
<path d="M22.2 24H7.8C6.80631 23.999 6.00098 23.1937 6 22.2V7.8C6.00098 6.80631 6.80631 6.00098 7.8 6H22.2C23.1937 6.00098 23.999 6.80631 24 7.8V22.2C23.999 23.1937 23.1937 23.999 22.2 24V24ZM23.4 7.8C23.4 7.13727 22.8627 6.60001 22.2 6.60001H7.8C7.13727 6.60001 6.60001 7.13727 6.60001 7.8V22.2C6.60001 22.8627 7.13727 23.4 7.8 23.4H22.2C22.8627 23.4 23.4 22.8627 23.4 22.2V7.8Z" fill="#78C081"/>
<path d="M8.24996 20.7C8.82987 20.7 9.29997 21.1701 9.29997 21.75C9.29997 22.3299 8.82987 22.8 8.24996 22.8C7.67006 22.8 7.19995 22.3299 7.19995 21.75C7.19995 21.1701 7.67006 20.7 8.24996 20.7ZM8.24996 22.2C8.49848 22.2 8.69996 21.9986 8.69996 21.75C8.69996 21.5015 8.49848 21.3 8.24996 21.3C8.00144 21.3 7.79996 21.5015 7.79996 21.75C7.79996 21.9986 8.00144 22.2 8.24996 22.2Z" fill="#78C081"/>
<path d="M21.75 22.8C21.1701 22.8 20.7 22.3299 20.7 21.75C20.7 21.1701 21.1701 20.7 21.75 20.7C22.3299 20.7 22.8 21.1701 22.8 21.75C22.8 22.0285 22.6893 22.2956 22.4924 22.4925C22.2955 22.6894 22.0284 22.8 21.75 22.8ZM21.75 21.3C21.5014 21.3 21.3 21.5015 21.3 21.75C21.3 21.9986 21.5014 22.2 21.75 22.2C21.9985 22.2 22.2 21.9986 22.2 21.75C22.2 21.5015 21.9985 21.3 21.75 21.3Z" fill="#78C081"/>
<path d="M8.24996 9.30005C7.67006 9.30005 7.19995 8.82994 7.19995 8.25004C7.19995 7.67013 7.67006 7.20003 8.24996 7.20003C8.82987 7.20003 9.29997 7.67013 9.29997 8.25004C9.29997 8.82994 8.82987 9.30005 8.24996 9.30005ZM8.24996 7.80004C8.00144 7.80004 7.79996 8.00152 7.79996 8.25004C7.79996 8.49856 8.00144 8.70004 8.24996 8.70004C8.49848 8.70004 8.69996 8.49856 8.69996 8.25004C8.69996 8.00152 8.49848 7.80004 8.24996 7.80004Z" fill="#78C081"/>
<path d="M21.75 9.30005C21.1701 9.30005 20.7 8.82994 20.7 8.25004C20.7 7.67013 21.1701 7.20003 21.75 7.20003C22.3299 7.20003 22.8 7.67013 22.8 8.25004C22.8 8.82994 22.3299 9.30005 21.75 9.30005ZM21.75 7.80004C21.5014 7.80004 21.3 8.00152 21.3 8.25004C21.3 8.49856 21.5014 8.70004 21.75 8.70004C21.9985 8.70004 22.2 8.49856 22.2 8.25004C22.2 8.00152 21.9985 7.80004 21.75 7.80004Z" fill="#78C081"/>
<path d="M21.8847 18.9087L21.3447 19.8087C21.2359 19.989 21.0408 20.0994 20.8302 20.1H9.16981C8.95922 20.0993 8.76424 19.9889 8.65529 19.8087L8.11529 18.9087C8.00406 18.7233 8.00118 18.4925 8.10766 18.3043C8.21415 18.1162 8.41363 18 8.6298 18H21.3702C21.5864 18 21.7858 18.1162 21.8924 18.3043C21.9988 18.4925 21.9959 18.7233 21.8847 18.9087ZM8.6298 18.6L9.16981 19.5H20.8302L21.3702 18.6H8.6298Z" fill="#78C081"/>
<path d="M21.8847 16.2087L21.3447 17.1087C21.2359 17.289 21.0408 17.3994 20.8302 17.4H9.16981C8.95922 17.3993 8.76424 17.2889 8.65529 17.1087L8.11529 16.2087C8.00406 16.0234 8.00118 15.7925 8.10766 15.6044C8.21415 15.4163 8.41363 15.3 8.6298 15.3H21.3702C21.5864 15.3 21.7858 15.4163 21.8924 15.6044C21.9988 15.7925 21.9959 16.0233 21.8847 16.2087ZM8.6298 15.9L9.16981 16.8H20.8302L21.3702 15.9H8.6298Z" fill="#78C081"/>
<path d="M21.8847 13.5086L21.3447 14.4086C21.2359 14.5889 21.0408 14.6994 20.8302 14.7H9.16981C8.95922 14.6992 8.76424 14.5889 8.65529 14.4086L8.11529 13.5086C8.00406 13.3233 8.00118 13.0924 8.10766 12.9043C8.21415 12.7162 8.41363 12.5999 8.6298 12.5999H21.3702C21.5864 12.5999 21.7858 12.7162 21.8924 12.9043C21.9988 13.0924 21.9959 13.3233 21.8847 13.5086ZM8.6298 13.1999L9.16981 14.0999H20.8302L21.3702 13.1999H8.6298Z" fill="#78C081"/>
<path d="M21.3444 11.709C21.2355 11.8891 21.0407 11.9994 20.8302 12H9.1698C8.95922 11.9993 8.76424 11.8889 8.65529 11.7087L8.11529 10.8087C8.00406 10.6234 8.00118 10.3925 8.10766 10.2044C8.21415 10.0162 8.41363 9.89998 8.6298 9.89998H21.3702C21.5864 9.89998 21.7858 10.0162 21.8924 10.2044C21.9988 10.3925 21.996 10.6233 21.8847 10.8087L21.3444 11.709ZM8.6298 10.5L9.1698 11.4H20.8302L21.3702 10.5H8.6298Z" fill="#78C081"/>
</g>
<defs>
<clipPath id="clip0_92_470">
<rect width="18" height="18" fill="white" transform="matrix(1 0 0 -1 6 24)"/>
</clipPath>
</defs>
</svg>
