<svg width="30" height="30" viewBox="0 0 30 30" fill="none" xmlns="http://www.w3.org/2000/svg">
<rect width="30" height="30" rx="10" fill="white"/>
<g clip-path="url(#clip0_92_159)">
<path d="M23.7153 21.8202H23.4647V21.1773V10.3854V9.04979C23.4647 8.17644 22.747 7.46593 21.8649 7.46593H21.45C21.3306 6.97694 20.8851 6.61255 20.355 6.61255H9.47592C8.9458 6.61255 8.50031 6.97694 8.38085 7.46593H8.13518C7.25301 7.46593 6.53533 8.17644 6.53533 9.04979V10.3855V21.1773V21.8202H6.28476C6.07762 21.8202 5.90912 21.987 5.90912 22.1921V23.0154C5.90912 23.2204 6.07762 23.3873 6.28476 23.3873H23.7153C23.9224 23.3873 24.0909 23.2204 24.0909 23.0154V22.1921C24.0909 21.987 23.9224 21.8202 23.7153 21.8202ZM7.06491 9.04979C7.06491 8.46553 7.54502 7.99022 8.13518 7.99022H9.81026C9.95649 7.99022 10.075 7.87287 10.075 7.72809C10.075 7.58332 9.95649 7.46597 9.81026 7.46597H8.9414C9.03923 7.27127 9.24175 7.13683 9.47592 7.13683H20.355C20.5891 7.13683 20.7916 7.27127 20.8895 7.46597H10.971C10.8248 7.46597 10.7062 7.58332 10.7062 7.72809C10.7062 7.87287 10.8248 7.99022 10.971 7.99022H21.8649C22.455 7.99022 22.9351 8.46553 22.9351 9.04979V9.13487H7.06491V9.04979ZM7.06491 10.6476H8.88064C9.24726 10.6476 9.54552 10.9429 9.54552 11.3058V20.2569C9.54552 20.6199 9.24726 20.9151 8.88064 20.9151H7.06491V10.6476ZM6.4387 22.863V22.3445H7.76263C7.90887 22.3445 8.02741 22.2271 8.02741 22.0824C8.02741 21.9376 7.90887 21.8202 7.76263 21.8202H7.06491V21.4394H8.88064C9.53927 21.4394 10.0751 20.9089 10.0751 20.2569V11.3058C10.0751 10.6538 9.53923 10.1233 8.88064 10.1233H7.06491V9.65912H14.7353V12.3476C14.7353 12.4924 14.8538 12.6097 15 12.6097C15.1463 12.6097 15.2648 12.4924 15.2648 12.3476V9.65912H22.9351V10.1233H21.1194C20.4608 10.1233 19.925 10.6538 19.925 11.3058V20.2569C19.925 20.9089 20.4608 21.4394 21.1194 21.4394H22.9351V21.8202H15.2648V13.4106C15.2648 13.2658 15.1463 13.1484 15 13.1484C14.8538 13.1484 14.7353 13.2658 14.7353 13.4106V21.8202H8.90411C8.75788 21.8202 8.63934 21.9376 8.63934 22.0824C8.63934 22.2271 8.75788 22.3445 8.90411 22.3445H23.5614V22.863L6.4387 22.863ZM22.9351 10.6476V20.9152H21.1194C20.7528 20.9152 20.4545 20.6199 20.4545 20.2569V11.3058C20.4545 10.9429 20.7528 10.6476 21.1194 10.6476H22.9351Z" fill="#78C081"/>
<path d="M8.72013 11.1045H7.68775C7.54151 11.1045 7.42297 11.2218 7.42297 11.3666C7.42297 11.5114 7.54151 11.6287 7.68775 11.6287H8.72013C8.86637 11.6287 8.98491 11.5114 8.98491 11.3666C8.98491 11.2218 8.86637 11.1045 8.72013 11.1045Z" fill="#78C081"/>
<path d="M8.72013 12.0856H7.68775C7.54151 12.0856 7.42297 12.2029 7.42297 12.3477C7.42297 12.4925 7.54151 12.6098 7.68775 12.6098H8.72013C8.86637 12.6098 8.98491 12.4925 8.98491 12.3477C8.98491 12.2029 8.86637 12.0856 8.72013 12.0856Z" fill="#78C081"/>
<path d="M8.72013 13.0667H7.68775C7.54151 13.0667 7.42297 13.184 7.42297 13.3288C7.42297 13.4735 7.54151 13.5909 7.68775 13.5909H8.72013C8.86637 13.5909 8.98491 13.4735 8.98491 13.3288C8.98491 13.184 8.86637 13.0667 8.72013 13.0667Z" fill="#78C081"/>
<path d="M8.72013 14.0477H7.68775C7.54151 14.0477 7.42297 14.1651 7.42297 14.3099C7.42297 14.4546 7.54151 14.572 7.68775 14.572H8.72013C8.86637 14.572 8.98491 14.4546 8.98491 14.3099C8.98491 14.1651 8.86637 14.0477 8.72013 14.0477Z" fill="#78C081"/>
<path d="M8.72013 15.0288H7.68775C7.54151 15.0288 7.42297 15.1462 7.42297 15.2909C7.42297 15.4357 7.54151 15.5531 7.68775 15.5531H8.72013C8.86637 15.5531 8.98491 15.4357 8.98491 15.2909C8.98491 15.1462 8.86637 15.0288 8.72013 15.0288Z" fill="#78C081"/>
<path d="M8.72013 16.0099H7.68775C7.54151 16.0099 7.42297 16.1272 7.42297 16.272C7.42297 16.4168 7.54151 16.5341 7.68775 16.5341H8.72013C8.86637 16.5341 8.98491 16.4168 8.98491 16.272C8.98491 16.1272 8.86637 16.0099 8.72013 16.0099Z" fill="#78C081"/>
<path d="M8.72013 16.991H7.68775C7.54151 16.991 7.42297 17.1083 7.42297 17.2531C7.42297 17.3979 7.54151 17.5152 7.68775 17.5152H8.72013C8.86637 17.5152 8.98491 17.3979 8.98491 17.2531C8.98491 17.1083 8.86637 16.991 8.72013 16.991Z" fill="#78C081"/>
<path d="M8.72013 17.972H7.68775C7.54151 17.972 7.42297 18.0894 7.42297 18.2342C7.42297 18.3789 7.54151 18.4963 7.68775 18.4963H8.72013C8.86637 18.4963 8.98491 18.3789 8.98491 18.2342C8.98491 18.0894 8.86637 17.972 8.72013 17.972Z" fill="#78C081"/>
<path d="M8.72013 18.9531H7.68775C7.54151 18.9531 7.42297 19.0705 7.42297 19.2152C7.42297 19.36 7.54151 19.4774 7.68775 19.4774H8.72013C8.86637 19.4774 8.98491 19.36 8.98491 19.2152C8.98491 19.0705 8.86637 18.9531 8.72013 18.9531Z" fill="#78C081"/>
<path d="M8.72017 19.9342H7.68775C7.54151 19.9342 7.42297 20.0516 7.42297 20.1963C7.42297 20.3411 7.54151 20.4585 7.68775 20.4585H8.72013C8.86637 20.4585 8.98494 20.3411 8.98494 20.1963C8.98494 20.0516 8.8664 19.9342 8.72017 19.9342Z" fill="#78C081"/>
<path d="M13.8703 11.1045H10.971C10.8248 11.1045 10.7062 11.2218 10.7062 11.3666C10.7062 11.5114 10.8248 11.6287 10.971 11.6287H13.8703C14.0165 11.6287 14.1351 11.5114 14.1351 11.3666C14.1351 11.2218 14.0165 11.1045 13.8703 11.1045Z" fill="#78C081"/>
<path d="M13.8703 10.1234H10.971C10.8248 10.1234 10.7062 10.2408 10.7062 10.3855C10.7062 10.5303 10.8248 10.6477 10.971 10.6477H13.8703C14.0165 10.6477 14.1351 10.5303 14.1351 10.3855C14.1351 10.2408 14.0165 10.1234 13.8703 10.1234Z" fill="#78C081"/>
<path d="M13.8703 20.9227H10.971C10.8248 20.9227 10.7062 21.0401 10.7062 21.1849C10.7062 21.3296 10.8248 21.447 10.971 21.447H13.8703C14.0165 21.447 14.1351 21.3296 14.1351 21.1849C14.1351 21.0401 14.0165 20.9227 13.8703 20.9227Z" fill="#78C081"/>
<path d="M13.8703 12.0856H10.971C10.8248 12.0856 10.7062 12.2029 10.7062 12.3477C10.7062 12.4924 10.8248 12.6098 10.971 12.6098H13.8703C14.0165 12.6098 14.1351 12.4925 14.1351 12.3477C14.1351 12.2029 14.0165 12.0856 13.8703 12.0856Z" fill="#78C081"/>
<path d="M13.8703 13.0667H10.971C10.8248 13.0667 10.7062 13.184 10.7062 13.3288C10.7062 13.4735 10.8248 13.5909 10.971 13.5909H13.8703C14.0165 13.5909 14.1351 13.4735 14.1351 13.3288C14.1351 13.184 14.0165 13.0667 13.8703 13.0667Z" fill="#78C081"/>
<path d="M13.8703 14.0477H10.971C10.8248 14.0477 10.7062 14.1651 10.7062 14.3099C10.7062 14.4546 10.8248 14.572 10.971 14.572H13.8703C14.0165 14.572 14.1351 14.4546 14.1351 14.3099C14.1351 14.165 14.0165 14.0477 13.8703 14.0477Z" fill="#78C081"/>
<path d="M13.8703 15.0288H10.971C10.8248 15.0288 10.7062 15.1462 10.7062 15.2909C10.7062 15.4357 10.8248 15.5531 10.971 15.5531H13.8703C14.0165 15.5531 14.1351 15.4357 14.1351 15.2909C14.1351 15.1462 14.0165 15.0288 13.8703 15.0288Z" fill="#78C081"/>
<path d="M13.8703 16.0099H10.971C10.8248 16.0099 10.7062 16.1272 10.7062 16.272C10.7062 16.4168 10.8248 16.5341 10.971 16.5341H13.8703C14.0165 16.5341 14.1351 16.4168 14.1351 16.272C14.1351 16.1272 14.0165 16.0099 13.8703 16.0099Z" fill="#78C081"/>
<path d="M13.8703 16.991H10.971C10.8248 16.991 10.7062 17.1083 10.7062 17.2531C10.7062 17.3979 10.8248 17.5152 10.971 17.5152H13.8703C14.0165 17.5152 14.1351 17.3979 14.1351 17.2531C14.1351 17.1083 14.0165 16.991 13.8703 16.991Z" fill="#78C081"/>
<path d="M13.8703 17.972H10.971C10.8248 17.972 10.7062 18.0894 10.7062 18.2342C10.7062 18.3789 10.8248 18.4963 10.971 18.4963H13.8703C14.0165 18.4963 14.1351 18.3789 14.1351 18.2342C14.1351 18.0894 14.0165 17.972 13.8703 17.972Z" fill="#78C081"/>
<path d="M13.8703 18.9531H10.971C10.8248 18.9531 10.7062 19.0705 10.7062 19.2152C10.7062 19.36 10.8248 19.4774 10.971 19.4774H13.8703C14.0165 19.4774 14.1351 19.36 14.1351 19.2152C14.1351 19.0705 14.0165 18.9531 13.8703 18.9531Z" fill="#78C081"/>
<path d="M13.8703 19.9342H10.971C10.8248 19.9342 10.7062 20.0516 10.7062 20.1963C10.7062 20.3411 10.8248 20.4585 10.971 20.4585H13.8703C14.0165 20.4585 14.1351 20.3411 14.1351 20.1963C14.1351 20.0516 14.0165 19.9342 13.8703 19.9342Z" fill="#78C081"/>
<path d="M22.3124 11.1045H21.28C21.1338 11.1045 21.0152 11.2218 21.0152 11.3666C21.0152 11.5114 21.1337 11.6287 21.28 11.6287H22.3124C22.4586 11.6287 22.5771 11.5114 22.5771 11.3666C22.5771 11.2218 22.4586 11.1045 22.3124 11.1045Z" fill="#78C081"/>
<path d="M22.3124 12.0856H21.28C21.1337 12.0856 21.0152 12.2029 21.0152 12.3477C21.0152 12.4925 21.1337 12.6098 21.28 12.6098H22.3124C22.4586 12.6098 22.5771 12.4925 22.5771 12.3477C22.5771 12.203 22.4586 12.0856 22.3124 12.0856Z" fill="#78C081"/>
<path d="M22.3124 13.0667H21.28C21.1337 13.0667 21.0152 13.184 21.0152 13.3288C21.0152 13.4735 21.1337 13.5909 21.28 13.5909H22.3124C22.4586 13.5909 22.5771 13.4735 22.5771 13.3288C22.5771 13.184 22.4586 13.0667 22.3124 13.0667Z" fill="#78C081"/>
<path d="M22.3124 14.0477H21.28C21.1337 14.0477 21.0152 14.1651 21.0152 14.3099C21.0152 14.4546 21.1337 14.572 21.28 14.572H22.3124C22.4586 14.572 22.5771 14.4546 22.5771 14.3099C22.5771 14.1651 22.4586 14.0477 22.3124 14.0477Z" fill="#78C081"/>
<path d="M22.3124 15.0288H21.28C21.1337 15.0288 21.0152 15.1462 21.0152 15.2909C21.0152 15.4357 21.1337 15.5531 21.28 15.5531H22.3124C22.4586 15.5531 22.5771 15.4357 22.5771 15.2909C22.5771 15.1462 22.4586 15.0288 22.3124 15.0288Z" fill="#78C081"/>
<path d="M22.3124 16.0099H21.28C21.1337 16.0099 21.0152 16.1272 21.0152 16.272C21.0152 16.4168 21.1337 16.5341 21.28 16.5341H22.3124C22.4586 16.5341 22.5771 16.4168 22.5771 16.272C22.5771 16.1272 22.4586 16.0099 22.3124 16.0099Z" fill="#78C081"/>
<path d="M22.3124 16.991H21.28C21.1337 16.991 21.0152 17.1083 21.0152 17.2531C21.0152 17.3979 21.1337 17.5152 21.28 17.5152H22.3124C22.4586 17.5152 22.5771 17.3979 22.5771 17.2531C22.5771 17.1083 22.4586 16.991 22.3124 16.991Z" fill="#78C081"/>
<path d="M22.3124 17.972H21.28C21.1337 17.972 21.0152 18.0894 21.0152 18.2342C21.0152 18.3789 21.1337 18.4963 21.28 18.4963H22.3124C22.4586 18.4963 22.5771 18.3789 22.5771 18.2342C22.5771 18.0894 22.4586 17.972 22.3124 17.972Z" fill="#78C081"/>
<path d="M22.3124 18.9531H21.28C21.1337 18.9531 21.0152 19.0705 21.0152 19.2152C21.0152 19.36 21.1337 19.4774 21.28 19.4774H22.3124C22.4586 19.4774 22.5771 19.36 22.5771 19.2152C22.5771 19.0705 22.4586 18.9531 22.3124 18.9531Z" fill="#78C081"/>
<path d="M22.3124 19.9342H21.28C21.1337 19.9342 21.0152 20.0516 21.0152 20.1963C21.0152 20.3411 21.1337 20.4585 21.28 20.4585H22.3124C22.4586 20.4585 22.5771 20.3411 22.5771 20.1963C22.5771 20.0516 22.4586 19.9342 22.3124 19.9342Z" fill="#78C081"/>
<path d="M19.029 11.1045H16.0944C15.9482 11.1045 15.8297 11.2218 15.8297 11.3666C15.8297 11.5114 15.9482 11.6287 16.0944 11.6287H19.029C19.1752 11.6287 19.2938 11.5114 19.2938 11.3666C19.2938 11.2218 19.1752 11.1045 19.029 11.1045Z" fill="#78C081"/>
<path d="M19.029 10.1234H16.0944C15.9482 10.1234 15.8297 10.2408 15.8297 10.3855C15.8297 10.5303 15.9482 10.6477 16.0944 10.6477H19.029C19.1752 10.6477 19.2938 10.5303 19.2938 10.3855C19.2938 10.2408 19.1752 10.1234 19.029 10.1234Z" fill="#78C081"/>
<path d="M19.029 20.9227H16.0944C15.9482 20.9227 15.8297 21.0401 15.8297 21.1849C15.8297 21.3296 15.9482 21.447 16.0944 21.447H19.029C19.1752 21.447 19.2938 21.3296 19.2938 21.1849C19.2938 21.0401 19.1752 20.9227 19.029 20.9227Z" fill="#78C081"/>
<path d="M19.029 12.0856H16.0944C15.9482 12.0856 15.8297 12.2029 15.8297 12.3477C15.8297 12.4924 15.9482 12.6098 16.0944 12.6098H19.029C19.1752 12.6098 19.2938 12.4925 19.2938 12.3477C19.2938 12.2029 19.1752 12.0856 19.029 12.0856Z" fill="#78C081"/>
<path d="M19.029 13.0667H16.0944C15.9482 13.0667 15.8297 13.184 15.8297 13.3288C15.8297 13.4735 15.9482 13.5909 16.0944 13.5909H19.029C19.1752 13.5909 19.2938 13.4735 19.2938 13.3288C19.2938 13.184 19.1752 13.0667 19.029 13.0667Z" fill="#78C081"/>
<path d="M19.029 14.0477H16.0944C15.9482 14.0477 15.8297 14.1651 15.8297 14.3099C15.8297 14.4546 15.9482 14.572 16.0944 14.572H19.029C19.1752 14.572 19.2938 14.4546 19.2938 14.3099C19.2938 14.165 19.1752 14.0477 19.029 14.0477Z" fill="#78C081"/>
<path d="M19.029 15.0288H16.0944C15.9482 15.0288 15.8297 15.1462 15.8297 15.2909C15.8297 15.4357 15.9482 15.5531 16.0944 15.5531H19.029C19.1752 15.5531 19.2938 15.4357 19.2938 15.2909C19.2938 15.1462 19.1752 15.0288 19.029 15.0288Z" fill="#78C081"/>
<path d="M19.029 16.0099H16.0944C15.9482 16.0099 15.8297 16.1272 15.8297 16.272C15.8297 16.4168 15.9482 16.5341 16.0944 16.5341H19.029C19.1752 16.5341 19.2938 16.4168 19.2938 16.272C19.2938 16.1272 19.1752 16.0099 19.029 16.0099Z" fill="#78C081"/>
<path d="M19.029 16.991H16.0944C15.9482 16.991 15.8297 17.1083 15.8297 17.2531C15.8297 17.3979 15.9482 17.5152 16.0944 17.5152H19.029C19.1752 17.5152 19.2938 17.3979 19.2938 17.2531C19.2938 17.1083 19.1752 16.991 19.029 16.991Z" fill="#78C081"/>
<path d="M19.029 17.972H16.0944C15.9482 17.972 15.8297 18.0894 15.8297 18.2342C15.8297 18.3789 15.9482 18.4963 16.0944 18.4963H19.029C19.1752 18.4963 19.2938 18.3789 19.2938 18.2342C19.2938 18.0894 19.1752 17.972 19.029 17.972Z" fill="#78C081"/>
<path d="M19.029 18.9531H16.0944C15.9482 18.9531 15.8297 19.0705 15.8297 19.2152C15.8297 19.36 15.9482 19.4774 16.0944 19.4774H19.029C19.1752 19.4774 19.2938 19.36 19.2938 19.2152C19.2938 19.0705 19.1752 18.9531 19.029 18.9531Z" fill="#78C081"/>
<path d="M19.029 19.9342H16.0944C15.9482 19.9342 15.8297 20.0516 15.8297 20.1963C15.8297 20.3411 15.9482 20.4585 16.0944 20.4585H19.029C19.1752 20.4585 19.2938 20.3411 19.2938 20.1963C19.2938 20.0516 19.1752 19.9342 19.029 19.9342Z" fill="#78C081"/>
</g>
<defs>
<clipPath id="clip0_92_159">
<rect width="20" height="18" fill="white" transform="translate(5 6)"/>
</clipPath>
</defs>
</svg>
