<svg width="30" height="30" viewBox="0 0 30 30" fill="none" xmlns="http://www.w3.org/2000/svg">
<rect width="30" height="30" rx="10" fill="white"/>
<g clip-path="url(#clip0_92_169)">
<path d="M8.59375 23.7344H22.4062C22.7584 23.734 23.0959 23.5939 23.3449 23.3449C23.5939 23.0959 23.734 22.7584 23.7344 22.4062V8.59375C23.734 8.24164 23.5939 7.90407 23.3449 7.65509C23.0959 7.40611 22.7584 7.26605 22.4062 7.26562H8.59375C8.24164 7.26605 7.90407 7.40611 7.65509 7.65509C7.40611 7.90407 7.26605 8.24164 7.26562 8.59375V22.4062C7.26605 22.7584 7.40611 23.0959 7.65509 23.3449C7.90407 23.5939 8.24164 23.734 8.59375 23.7344ZM7.79688 22.4062V8.59375C7.79733 8.47542 7.82458 8.35872 7.87656 8.25242L10.5328 10.9087C10.481 11.015 10.4538 11.1317 10.4531 11.25V19.75C10.4537 19.8684 10.481 19.9851 10.5328 20.0916L7.87656 22.7478C7.82454 22.6415 7.79729 22.5247 7.79688 22.4062ZM23.1234 8.25242C23.1754 8.35872 23.2027 8.47542 23.2031 8.59375V22.4062C23.2025 22.5246 23.1753 22.6412 23.1234 22.7476L20.4672 20.0913C20.5191 19.985 20.5463 19.8683 20.5469 19.75V11.25C20.5464 11.1317 20.5192 11.015 20.4672 10.9087L23.1234 8.25242ZM20.0156 18.9531H16.2969V18.4219H20.0156V18.9531ZM20.0156 17.8906H16.2969V17.3594H20.0156V17.8906ZM20.0156 16.8281H16.2969V16.2969H20.0156V16.8281ZM20.0156 15.7656H16.2969V15.2344H20.0156V15.7656ZM20.0156 14.7031H16.2969V14.1719H20.0156V14.7031ZM20.0156 13.6406H16.2969V13.1094H20.0156V13.6406ZM20.0156 12.5781H16.2969V12.0469H20.0156V12.5781ZM16.2969 19.4844H20.0156V19.75C20.0156 19.8204 19.9876 19.888 19.9378 19.9378C19.888 19.9876 19.8204 20.0156 19.75 20.0156H16.2969V19.4844ZM20.0156 11.25V11.5156H16.2969V10.9844H19.75C19.8204 10.9844 19.888 11.0124 19.9378 11.0622C19.9876 11.112 20.0156 11.1796 20.0156 11.25ZM15.7656 20.0156H15.2344V10.9844H15.7656V20.0156ZM10.9844 12.0469H14.7031V12.5781H10.9844V12.0469ZM10.9844 13.1094H14.7031V13.6406H10.9844V13.1094ZM10.9844 14.1719H14.7031V14.7031H10.9844V14.1719ZM10.9844 15.2344H14.7031V15.7656H10.9844V15.2344ZM10.9844 16.2969H14.7031V16.8281H10.9844V16.2969ZM10.9844 17.3594H14.7031V17.8906H10.9844V17.3594ZM10.9844 18.4219H14.7031V18.9531H10.9844V18.4219ZM10.9844 19.75V19.4844H14.7031V20.0156H11.25C11.1796 20.0156 11.112 19.9876 11.0622 19.9378C11.0124 19.888 10.9844 19.8204 10.9844 19.75ZM14.7031 11.5156H10.9844V11.25C10.9844 11.1796 11.0124 11.112 11.0622 11.0622C11.112 11.0124 11.1796 10.9844 11.25 10.9844H14.7031V11.5156ZM8.59375 23.2031C8.47542 23.2027 8.35872 23.1754 8.25242 23.1234L10.9087 20.4672C11.015 20.5191 11.1317 20.5463 11.25 20.5469H19.75C19.8684 20.5463 19.9851 20.519 20.0916 20.4672L22.7478 23.1234C22.6414 23.1753 22.5246 23.2025 22.4062 23.2031H8.59375ZM22.4062 7.79688C22.5246 7.79733 22.6413 7.82458 22.7476 7.87656L20.0913 10.5328C19.985 10.4808 19.8683 10.4536 19.75 10.4531H11.25C11.1317 10.4537 11.015 10.4809 10.9087 10.5328L8.25242 7.87656C8.35877 7.8247 8.47543 7.79746 8.59375 7.79688H22.4062Z" fill="#78C081"/>
<path d="M18.9531 21.0781H12.0469C11.8355 21.0781 11.6328 21.1621 11.4834 21.3115C11.334 21.461 11.25 21.6637 11.25 21.875C11.25 22.0863 11.334 22.289 11.4834 22.4385C11.6328 22.5879 11.8355 22.6719 12.0469 22.6719H18.9531C19.1645 22.6719 19.3672 22.5879 19.5166 22.4385C19.666 22.289 19.75 22.0863 19.75 21.875C19.75 21.6637 19.666 21.461 19.5166 21.3115C19.3672 21.1621 19.1645 21.0781 18.9531 21.0781ZM18.9531 22.1406H12.0469C11.9764 22.1406 11.9089 22.1126 11.859 22.0628C11.8092 22.013 11.7812 21.9454 11.7812 21.875C11.7812 21.8046 11.8092 21.737 11.859 21.6872C11.9089 21.6374 11.9764 21.6094 12.0469 21.6094H18.9531C19.0236 21.6094 19.0911 21.6374 19.141 21.6872C19.1908 21.737 19.2188 21.8046 19.2188 21.875C19.2188 21.9454 19.1908 22.013 19.141 22.0628C19.0911 22.1126 19.0236 22.1406 18.9531 22.1406Z" fill="#78C081"/>
<path d="M12.0469 9.92188H18.9531C19.1645 9.92188 19.3672 9.83792 19.5166 9.68848C19.666 9.53903 19.75 9.33634 19.75 9.125C19.75 8.91366 19.666 8.71097 19.5166 8.56152C19.3672 8.41208 19.1645 8.32812 18.9531 8.32812H12.0469C11.8355 8.32812 11.6328 8.41208 11.4834 8.56152C11.334 8.71097 11.25 8.91366 11.25 9.125C11.25 9.33634 11.334 9.53903 11.4834 9.68848C11.6328 9.83792 11.8355 9.92188 12.0469 9.92188ZM12.0469 8.85938H18.9531C19.0236 8.85938 19.0911 8.88736 19.141 8.93717C19.1908 8.98699 19.2188 9.05455 19.2188 9.125C19.2188 9.19545 19.1908 9.26301 19.141 9.31283C19.0911 9.36264 19.0236 9.39062 18.9531 9.39062H12.0469C11.9764 9.39062 11.9089 9.36264 11.859 9.31283C11.8092 9.26301 11.7812 9.19545 11.7812 9.125C11.7812 9.05455 11.8092 8.98699 11.859 8.93717C11.9089 8.88736 11.9764 8.85938 12.0469 8.85938Z" fill="#78C081"/>
<path d="M21.875 19.75C22.0863 19.75 22.289 19.666 22.4385 19.5166C22.5879 19.3672 22.6719 19.1645 22.6719 18.9531V12.0469C22.6719 11.8355 22.5879 11.6328 22.4385 11.4834C22.289 11.334 22.0863 11.25 21.875 11.25C21.6637 11.25 21.461 11.334 21.3115 11.4834C21.1621 11.6328 21.0781 11.8355 21.0781 12.0469V18.9531C21.0781 19.1645 21.1621 19.3672 21.3115 19.5166C21.461 19.666 21.6637 19.75 21.875 19.75ZM21.6094 12.0469C21.6094 11.9764 21.6374 11.9089 21.6872 11.859C21.737 11.8092 21.8046 11.7812 21.875 11.7812C21.9454 11.7812 22.013 11.8092 22.0628 11.859C22.1126 11.9089 22.1406 11.9764 22.1406 12.0469V18.9531C22.1406 19.0236 22.1126 19.0911 22.0628 19.141C22.013 19.1908 21.9454 19.2188 21.875 19.2188C21.8046 19.2188 21.737 19.1908 21.6872 19.141C21.6374 19.0911 21.6094 19.0236 21.6094 18.9531V12.0469Z" fill="#78C081"/>
<path d="M9.125 11.25C8.91366 11.25 8.71097 11.334 8.56152 11.4834C8.41208 11.6328 8.32812 11.8355 8.32812 12.0469V18.9531C8.32812 19.1645 8.41208 19.3672 8.56152 19.5166C8.71097 19.666 8.91366 19.75 9.125 19.75C9.33634 19.75 9.53903 19.666 9.68848 19.5166C9.83792 19.3672 9.92188 19.1645 9.92188 18.9531V12.0469C9.92188 11.8355 9.83792 11.6328 9.68848 11.4834C9.53903 11.334 9.33634 11.25 9.125 11.25ZM9.39062 18.9531C9.39062 19.0236 9.36264 19.0911 9.31283 19.141C9.26301 19.1908 9.19545 19.2188 9.125 19.2188C9.05455 19.2188 8.98699 19.1908 8.93717 19.141C8.88736 19.0911 8.85938 19.0236 8.85938 18.9531V12.0469C8.85938 11.9764 8.88736 11.9089 8.93717 11.859C8.98699 11.8092 9.05455 11.7812 9.125 11.7812C9.19545 11.7812 9.26301 11.8092 9.31283 11.859C9.36264 11.9089 9.39062 11.9764 9.39062 12.0469V18.9531Z" fill="#78C081"/>
</g>
<defs>
<clipPath id="clip0_92_169">
<rect width="17" height="17" fill="white" transform="matrix(-1 0 0 -1 24 24)"/>
</clipPath>
</defs>
</svg>
