<svg width="30" height="30" viewBox="0 0 30 30" fill="none" xmlns="http://www.w3.org/2000/svg">
<rect width="30" height="30" rx="10" fill="white"/>
<g clip-path="url(#clip0_172_1136)">
<path d="M15.8728 10.0045V13.1241C15.8728 13.2574 15.9908 13.3654 16.1364 13.3654H22.5999C22.7455 13.3654 22.8636 13.2574 22.8636 13.1241V10.0045C22.8636 9.87118 22.7455 9.76318 22.5999 9.76318H16.1364C15.9908 9.76318 15.8728 9.87121 15.8728 10.0045ZM16.4001 11.2856H22.3362V11.8429H16.4001V11.2856ZM16.4001 12.8828V12.3255H22.3362V12.8828H16.4001ZM22.3362 10.2457V10.8031H16.4001V10.2457H22.3362Z" fill="#78C081"/>
<path d="M7.40011 9.76318C7.25449 9.76318 7.13644 9.87118 7.13644 10.0045V13.1241C7.13644 13.2574 7.25449 13.3654 7.40011 13.3654H13.8636C14.0092 13.3654 14.1273 13.2574 14.1273 13.1241V10.0045C14.1273 9.87118 14.0092 9.76318 13.8636 9.76318H7.40011ZM7.66378 11.2856H13.5999V11.8429H7.66378V11.2856ZM7.66378 12.8828V12.3255H13.5999V12.8828H7.66378ZM13.5999 10.2457V10.8031H7.66378V10.2457H13.5999Z" fill="#78C081"/>
<path d="M18.6845 21.1587C18.7875 21.0644 18.7875 20.9117 18.6845 20.8175C18.5815 20.7232 18.4146 20.7232 18.3116 20.8175L18.0515 21.0555V20.9881C18.0515 20.879 18.083 20.838 18.1457 20.7562C18.2258 20.6517 18.3356 20.5085 18.3356 20.2471C18.3356 19.9857 18.2258 19.8425 18.1457 19.7381C18.083 19.6563 18.0515 19.6152 18.0515 19.5061C18.0515 19.3971 18.083 19.3561 18.1457 19.2743C18.2259 19.1698 18.3356 19.0267 18.3356 18.7653C18.3356 18.6888 18.326 18.6228 18.3108 18.5646H20.8984C20.9453 18.6275 20.969 18.671 20.969 18.7653C20.969 18.8743 20.9375 18.9153 20.8747 18.9971C20.7946 19.1016 20.6848 19.2447 20.6848 19.5061C20.6848 19.7676 20.7946 19.9107 20.8747 20.0152C20.9375 20.097 20.9689 20.1381 20.9689 20.2471C20.9689 20.3562 20.9374 20.3972 20.8747 20.479C20.7946 20.5835 20.6848 20.7266 20.6848 20.9881V21.0555L20.4247 20.8175C20.3217 20.7232 20.1547 20.7232 20.0518 20.8175C20.0003 20.8646 19.9746 20.9264 19.9746 20.9881C19.9746 21.0498 20.0003 21.1116 20.0518 21.1587L20.7621 21.8086C20.865 21.9029 21.032 21.9029 21.1349 21.8086L21.8452 21.1587C21.9482 21.0644 21.9482 20.9117 21.8452 20.8175C21.7422 20.7232 21.5753 20.7232 21.4723 20.8175L21.2122 21.0555V20.9881C21.2122 20.879 21.2437 20.838 21.3064 20.7562C21.3865 20.6517 21.4963 20.5085 21.4963 20.2471C21.4963 19.9857 21.3865 19.8425 21.3064 19.7381C21.2436 19.6563 21.2122 19.6152 21.2122 19.5061C21.2122 19.3971 21.2437 19.3561 21.3064 19.2743C21.3866 19.1698 21.4963 19.0267 21.4963 18.7653C21.4963 18.6889 21.4868 18.6228 21.4715 18.5646H23.0262C23.5631 18.5646 24 18.1648 24 17.6735V9.61447C24 9.12315 23.5631 8.72339 23.0262 8.72339H11.2116C11.0659 8.72339 10.9479 8.83138 10.9479 8.96466C10.9479 9.09793 11.0659 9.20593 11.2116 9.20593H23.0262C23.2724 9.20593 23.4727 9.38919 23.4727 9.61447V17.6735C23.4727 17.8988 23.2724 18.082 23.0262 18.082H21.2163C21.2138 18.0648 21.2122 18.0462 21.2122 18.0244C21.2122 17.9154 21.2437 17.8743 21.3064 17.7926C21.3575 17.7259 21.4205 17.6435 21.4596 17.5248H22.5999C22.7455 17.5248 22.8636 17.4168 22.8636 17.2836V14.1639C22.8636 14.0306 22.7455 13.9227 22.5999 13.9227H16.1364C15.9908 13.9227 15.8728 14.0306 15.8728 14.1639V17.2836C15.8728 17.4168 15.9908 17.5248 16.1364 17.5248H17.7068C17.6274 17.6285 17.5241 17.7707 17.5241 18.0244C17.5241 18.0444 17.525 18.0634 17.5262 18.082H16.5145C16.3689 18.082 16.2508 18.19 16.2508 18.3233C16.2508 18.4566 16.3689 18.5646 16.5145 18.5646H17.7377C17.7846 18.6275 17.8082 18.671 17.8082 18.7652C17.8082 18.8742 17.7767 18.9153 17.714 18.997C17.6339 19.1015 17.5241 19.2447 17.5241 19.5061C17.5241 19.7676 17.6339 19.9107 17.714 20.0152C17.7767 20.097 17.8082 20.138 17.8082 20.2471C17.8082 20.3561 17.7767 20.3972 17.714 20.479C17.6338 20.5835 17.5241 20.7266 17.5241 20.9881V21.0555L17.264 20.8174C17.161 20.7232 16.994 20.7232 16.8911 20.8174C16.8396 20.8646 16.8139 20.9263 16.8139 20.9881C16.8139 21.0498 16.8396 21.1116 16.8911 21.1587L17.6014 21.8086C17.7043 21.9028 17.8713 21.9028 17.9742 21.8086L18.6845 21.1587ZM22.3362 16.0024H16.4001V15.4451H22.3362V16.0024ZM22.3362 14.4052V14.9625H16.4001V14.4052H22.3362ZM16.4001 17.0423V16.485H22.3362V17.0423H16.4001ZM18.0515 18.0244C18.0515 17.9154 18.083 17.8743 18.1457 17.7926C18.1968 17.7259 18.2598 17.6435 18.2989 17.5248H20.8675C20.7882 17.6285 20.6848 17.7707 20.6848 18.0244C20.6848 18.0444 20.6857 18.0634 20.6869 18.082H18.0556C18.0531 18.0648 18.0515 18.0462 18.0515 18.0244Z" fill="#78C081"/>
<path d="M11.3155 20.8175C11.264 20.8646 11.2382 20.9264 11.2382 20.9881C11.2382 21.0498 11.264 21.1116 11.3155 21.1587L12.0257 21.8086C12.1287 21.9029 12.2957 21.9029 12.3986 21.8086L13.1089 21.1587C13.2118 21.0645 13.2118 20.9117 13.1089 20.8175C13.0059 20.7233 12.8389 20.7233 12.736 20.8175L12.4758 21.0555V20.9881C12.4758 20.8791 12.5073 20.838 12.5701 20.7562C12.6502 20.6517 12.7599 20.5086 12.7599 20.2471C12.7599 19.9857 12.6502 19.8426 12.5701 19.7381C12.5073 19.6563 12.4758 19.6152 12.4758 19.5062C12.4758 19.3971 12.5073 19.3561 12.5701 19.2743C12.6502 19.1698 12.76 19.0267 12.76 18.7653C12.76 18.6889 12.7504 18.6228 12.7352 18.5646H15.2841C15.4297 18.5646 15.5477 18.4566 15.5477 18.3234C15.5477 18.1901 15.4297 18.0821 15.2841 18.0821H12.48C12.4775 18.0648 12.4758 18.0463 12.4758 18.0244C12.4758 17.9155 12.5073 17.8744 12.5701 17.7926C12.6211 17.726 12.6842 17.6435 12.7232 17.5249H13.8636C14.0092 17.5249 14.1272 17.4169 14.1272 17.2836V14.164C14.1272 14.0307 14.0092 13.9227 13.8636 13.9227H7.40009C7.25448 13.9227 7.13642 14.0307 7.13642 14.164V17.2836C7.13642 17.4169 7.25448 17.5249 7.40009 17.5249H8.97045C8.8911 17.6286 8.78778 17.7707 8.78778 18.0244C8.78778 18.0444 8.78862 18.0635 8.78982 18.0821H6.97382C6.72762 18.0821 6.52734 17.8988 6.52734 17.6735V9.61447C6.52734 9.38919 6.72762 9.20593 6.97382 9.20593H9.98109C10.1267 9.20593 10.2448 9.09793 10.2448 8.96466C10.2448 8.83138 10.1267 8.72339 9.98109 8.72339H6.97382C6.43685 8.72339 5.99999 9.12312 5.99999 9.61447V17.6735C5.99999 18.1648 6.43685 18.5646 6.97382 18.5646H9.00135C9.04825 18.6275 9.07191 18.671 9.07191 18.7652C9.07191 18.8742 9.04041 18.9153 8.97769 18.997C8.89757 19.1015 8.78782 19.2447 8.78782 19.5061C8.78782 19.7676 8.89757 19.9107 8.97769 20.0152C9.04041 20.097 9.07191 20.138 9.07191 20.2471C9.07191 20.3561 9.04041 20.3972 8.97769 20.479C8.89754 20.5835 8.78782 20.7266 8.78782 20.9881V21.0555L8.52766 20.8174C8.42469 20.7232 8.25773 20.7232 8.15479 20.8174C8.10332 20.8646 8.07755 20.9263 8.07755 20.9881C8.07755 21.0498 8.10329 21.1116 8.15479 21.1587L8.86505 21.8086C8.96803 21.9028 9.13498 21.9028 9.23792 21.8086L9.94818 21.1587C10.0512 21.0644 10.0512 20.9117 9.94818 20.8175C9.84521 20.7232 9.67825 20.7232 9.57532 20.8175L9.31516 21.0555V20.9881C9.31516 20.879 9.34666 20.838 9.40938 20.7562C9.4895 20.6517 9.59926 20.5085 9.59926 20.2471C9.59926 19.9857 9.4895 19.8425 9.40938 19.7381C9.34662 19.6563 9.31516 19.6152 9.31516 19.5061C9.31516 19.3971 9.34666 19.3561 9.40938 19.2743C9.48953 19.1698 9.59926 19.0267 9.59926 18.7653C9.59926 18.6888 9.58969 18.6228 9.57444 18.5646H12.1621C12.209 18.6275 12.2326 18.671 12.2326 18.7653C12.2326 18.8743 12.2011 18.9153 12.1384 18.9971C12.0583 19.1016 11.9485 19.2447 11.9485 19.5061C11.9485 19.7676 12.0583 19.9107 12.1384 20.0152C12.2011 20.097 12.2326 20.1381 12.2326 20.2471C12.2326 20.3562 12.2011 20.3972 12.1384 20.479C12.0583 20.5835 11.9485 20.7266 11.9485 20.9881V21.0555L11.6883 20.8175C11.5854 20.7232 11.4185 20.7232 11.3155 20.8175ZM13.5999 16.0024H7.66376L7.66376 15.4451H13.5999V16.0024ZM13.5999 14.4052V14.9625H7.66376V14.4052H13.5999ZM7.66376 17.0423V16.485H13.5999V17.0423H7.66376ZM9.31516 18.0244C9.31516 17.9154 9.34666 17.8743 9.40938 17.7926C9.46046 17.7259 9.5235 17.6435 9.56252 17.5248H12.1312C12.0518 17.6285 11.9485 17.7707 11.9485 18.0244C11.9485 18.0444 11.9493 18.0634 11.9506 18.082H9.31931C9.31678 18.0648 9.31516 18.0462 9.31516 18.0244Z" fill="#78C081"/>
</g>
<defs>
<clipPath id="clip0_172_1136">
<rect width="14" height="18" fill="white" transform="matrix(0 1 -1 0 24 8)"/>
</clipPath>
</defs>
</svg>
