<svg width="30" height="30" viewBox="0 0 30 30" fill="none" xmlns="http://www.w3.org/2000/svg">
<rect width="30" height="30" rx="10" fill="white"/>
<g clip-path="url(#clip0_92_151)">
<path d="M22.4913 16.4097H7.50863C7.26764 16.4097 7.03652 16.316 6.86611 16.1492C6.69571 15.9824 6.59998 15.7562 6.59998 15.5204V10.4608C6.60024 10.225 6.69606 9.99893 6.86641 9.83219C7.03676 9.66546 7.26772 9.57167 7.50863 9.57141H22.4913C22.7322 9.57167 22.9632 9.66546 23.1335 9.83219C23.3039 9.99893 23.3997 10.225 23.4 10.4608V15.5204C23.4 15.7562 23.3042 15.9824 23.1338 16.1492C22.9634 16.316 22.7323 16.4097 22.4913 16.4097ZM7.50863 10.2039C7.43901 10.2039 7.37224 10.2309 7.32301 10.2791C7.27379 10.3273 7.24613 10.3926 7.24613 10.4608V15.5204C7.24613 15.5885 7.27379 15.6538 7.32301 15.702C7.37224 15.7502 7.43901 15.7773 7.50863 15.7773H22.4913C22.5609 15.7773 22.6277 15.7502 22.6769 15.702C22.7262 15.6538 22.7538 15.5885 22.7538 15.5204V10.4608C22.7538 10.3926 22.7262 10.3273 22.6769 10.2791C22.6277 10.2309 22.5609 10.2039 22.4913 10.2039H7.50863Z" fill="#78C081"/>
<path d="M18.8867 12.536H11.1126C10.6442 12.5353 10.1952 12.3528 9.86411 12.0285C9.53298 11.7043 9.34673 11.2647 9.34619 10.8063V9.88763C9.34619 9.80377 9.38023 9.72333 9.44082 9.66403C9.50141 9.60473 9.58358 9.57141 9.66927 9.57141C9.75495 9.57141 9.83713 9.60473 9.89772 9.66403C9.95831 9.72333 9.99235 9.80377 9.99235 9.88763V10.8063C9.99267 11.0972 10.1109 11.3761 10.3211 11.5818C10.5312 11.7875 10.8162 11.9032 11.1134 11.9036H18.8875C19.1846 11.903 19.4693 11.7872 19.6793 11.5815C19.8893 11.3758 20.0074 11.097 20.0077 10.8063V9.88763C20.0077 9.80377 20.0418 9.72333 20.1024 9.66403C20.1629 9.60473 20.2451 9.57141 20.3308 9.57141C20.4165 9.57141 20.4987 9.60473 20.5593 9.66403C20.6198 9.72333 20.6539 9.80377 20.6539 9.88763V10.8063C20.6533 11.2649 20.467 11.7045 20.1357 12.0288C19.8044 12.3531 19.3552 12.5355 18.8867 12.536Z" fill="#78C081"/>
<path d="M19.0789 11.37H10.9212C10.8355 11.37 10.7534 11.3367 10.6928 11.2774C10.6322 11.2181 10.5981 11.1376 10.5981 11.0538C10.5981 10.9699 10.6322 10.8895 10.6928 10.8302C10.7534 10.7709 10.8355 10.7375 10.9212 10.7375H19.0789C19.1646 10.7375 19.2468 10.7709 19.3074 10.8302C19.368 10.8895 19.402 10.9699 19.402 11.0538C19.402 11.1376 19.368 11.2181 19.3074 11.2774C19.2468 11.3367 19.1646 11.37 19.0789 11.37Z" fill="#78C081"/>
<path d="M20.2198 16.4098C20.1341 16.4098 20.0519 16.3765 19.9914 16.3172C19.9308 16.2579 19.8967 16.1774 19.8967 16.0936V15.9552C19.8965 15.7276 19.8039 15.5093 19.6395 15.3483C19.475 15.1873 19.252 15.0967 19.0194 15.0965H10.9818C10.7492 15.0967 10.5262 15.1873 10.3617 15.3483C10.1973 15.5093 10.1047 15.7276 10.1045 15.9552V16.0936C10.1045 16.1774 10.0704 16.2579 10.0098 16.3172C9.94925 16.3765 9.86708 16.4098 9.78139 16.4098C9.6957 16.4098 9.61353 16.3765 9.55294 16.3172C9.49235 16.2579 9.45831 16.1774 9.45831 16.0936V15.9552C9.45879 15.5599 9.61947 15.1809 9.90508 14.9014C10.1907 14.6219 10.5779 14.4647 10.9818 14.4642H19.0204C19.4243 14.4647 19.8116 14.6219 20.0972 14.9015C20.3828 15.181 20.5435 15.5601 20.5439 15.9554V16.0938C20.5439 16.1354 20.5355 16.1765 20.5191 16.2149C20.5028 16.2534 20.4789 16.2882 20.4488 16.3176C20.4187 16.347 20.383 16.3702 20.3437 16.386C20.3044 16.4018 20.2623 16.4099 20.2198 16.4098Z" fill="#78C081"/>
<path d="M8.94997 20.2934C8.86428 20.2934 8.78211 20.26 8.72152 20.2007C8.66093 20.1414 8.62689 20.061 8.62689 19.9771C8.62689 19.8933 8.66093 19.8128 8.72152 19.7535C8.78211 19.6942 8.86428 19.6609 8.94997 19.6609C9.53344 19.6601 10.0928 19.4328 10.5053 19.029C10.9179 18.6252 11.1501 18.0777 11.1509 17.5067C11.1509 17.4228 11.185 17.3424 11.2456 17.283C11.3061 17.2237 11.3883 17.1904 11.474 17.1904C11.5597 17.1904 11.6419 17.2237 11.7025 17.283C11.763 17.3424 11.7971 17.4228 11.7971 17.5067C11.7979 19.0429 10.5203 20.2934 8.94997 20.2934Z" fill="#78C081"/>
<path d="M21.0501 20.2934C19.4798 20.2934 18.203 19.0429 18.203 17.5067C18.203 17.4228 18.237 17.3424 18.2976 17.283C18.3582 17.2237 18.4404 17.1904 18.5261 17.1904C18.6118 17.1904 18.6939 17.2237 18.7545 17.283C18.8151 17.3424 18.8492 17.4228 18.8492 17.5067C18.85 18.0777 19.0822 18.6252 19.4947 19.029C19.9073 19.4328 20.4666 19.6601 21.0501 19.6609C21.1358 19.6609 21.218 19.6942 21.2786 19.7535C21.3392 19.8128 21.3732 19.8933 21.3732 19.9771C21.3732 20.061 21.3392 20.1414 21.2786 20.2007C21.218 20.26 21.1358 20.2934 21.0501 20.2934Z" fill="#78C081"/>
<path d="M15.0001 20.4285C14.9144 20.4285 14.8322 20.3952 14.7716 20.3359C14.711 20.2766 14.677 20.1962 14.677 20.1123V17.3716C14.677 17.2878 14.711 17.2073 14.7716 17.148C14.8322 17.0887 14.9144 17.0554 15.0001 17.0554C15.0858 17.0554 15.1679 17.0887 15.2285 17.148C15.2891 17.2073 15.3232 17.2878 15.3232 17.3716V20.1123C15.3232 20.1962 15.2891 20.2766 15.2285 20.3359C15.1679 20.3952 15.0858 20.4285 15.0001 20.4285Z" fill="#78C081"/>
</g>
<defs>
<clipPath id="clip0_92_151">
<rect width="18" height="12" fill="white" transform="translate(6 9)"/>
</clipPath>
</defs>
</svg>
