<svg width="30" height="30" viewBox="0 0 30 30" fill="none" xmlns="http://www.w3.org/2000/svg">
<rect width="30" height="30" rx="10" fill="white"/>
<g clip-path="url(#clip0_172_1126)">
<path fill-rule="evenodd" clip-rule="evenodd" d="M16.8671 16.4826C16.8671 16.7697 17.1124 17.0023 17.4149 17.0023H18.9065C19.209 17.0023 19.4543 16.7697 19.4543 16.4826V15.9435C19.4543 15.6565 19.209 15.4238 18.9065 15.4238H17.4149C17.1124 15.4238 16.8671 15.6565 16.8671 15.9435V16.4826ZM17.4149 16.502C17.4036 16.502 17.3945 16.4933 17.3945 16.4826V15.9435C17.3945 15.9328 17.4036 15.9241 17.4149 15.9241H18.9065C18.9178 15.9241 18.9269 15.9328 18.9269 15.9435V16.4826C18.9269 16.4933 18.9178 16.502 18.9065 16.502H17.4149Z" fill="#78C081"/>
<path fill-rule="evenodd" clip-rule="evenodd" d="M20.0634 20.7956C20.0634 20.9337 20.1814 21.0457 20.327 21.0457H20.5905H21.1794C21.4819 21.0457 21.7271 20.813 21.7271 20.526V19.4478C21.7271 19.1607 21.4819 18.928 21.1794 18.928H20.5905H20.327C20.1814 18.928 20.0634 19.04 20.0634 19.1782C20.0634 19.3164 20.1814 19.4284 20.327 19.4284H20.5905H21.1794C21.1906 19.4284 21.1998 19.437 21.1998 19.4478V20.526C21.1998 20.5367 21.1906 20.5454 21.1794 20.5454H20.5905H20.327C20.1814 20.5454 20.0634 20.6574 20.0634 20.7956Z" fill="#78C081"/>
<path fill-rule="evenodd" clip-rule="evenodd" d="M16.8671 18.6391C16.8671 18.9261 17.1124 19.1588 17.4149 19.1588H18.9065C19.209 19.1588 19.4543 18.9261 19.4543 18.6391V18.1C19.4543 17.8129 19.209 17.5803 18.9065 17.5803H17.4149C17.1124 17.5803 16.8671 17.8129 16.8671 18.1V18.6391ZM17.4149 18.6585C17.4036 18.6585 17.3945 18.6498 17.3945 18.6391V18.1C17.3945 18.0893 17.4036 18.0806 17.4149 18.0806H18.9065C18.9178 18.0806 18.9269 18.0893 18.9269 18.1V18.6391C18.9269 18.6498 18.9178 18.6585 18.9065 18.6585H17.4149Z" fill="#78C081"/>
<path fill-rule="evenodd" clip-rule="evenodd" d="M10.5457 22.4129C10.5457 22.7372 10.8228 23 11.1645 23H12.1589C12.5007 23 12.7777 22.7372 12.7777 22.4129V21.9217V21.6716C12.7777 21.5334 12.6597 21.4214 12.5141 21.4214C12.3684 21.4214 12.2504 21.5334 12.2504 21.6716V21.9217V22.4129C12.2504 22.4608 12.2095 22.4997 12.1589 22.4997H11.1645C11.114 22.4997 11.0731 22.4608 11.0731 22.4129V21.9217V21.6716C11.0731 21.5334 10.955 21.4214 10.8094 21.4214C10.6638 21.4214 10.5457 21.5334 10.5457 21.6716V21.9217V22.4129Z" fill="#78C081"/>
<path fill-rule="evenodd" clip-rule="evenodd" d="M17.8411 22.4997C17.7905 22.4997 17.7496 22.4608 17.7496 22.4129V21.9217V21.6716C17.7496 21.5334 17.6316 21.4214 17.4859 21.4214C17.3403 21.4214 17.2223 21.5334 17.2223 21.6716V21.9217V22.4129C17.2223 22.7372 17.4994 23 17.8411 23H18.8355C19.1772 23 19.4543 22.7372 19.4543 22.4129V21.9217V21.6716C19.4543 21.5334 19.3362 21.4214 19.1906 21.4214C19.045 21.4214 18.9269 21.5334 18.9269 21.6716V21.9217V22.4129C18.9269 22.4608 18.886 22.4997 18.8355 22.4997H17.8411Z" fill="#78C081"/>
<path fill-rule="evenodd" clip-rule="evenodd" d="M10.5457 18.1337C10.5457 19.6303 11.8245 20.8435 13.4019 20.8435C14.9793 20.8435 16.258 19.6303 16.258 18.1337C16.258 16.637 14.9793 15.4238 13.4019 15.4238C11.8245 15.4238 10.5457 16.637 10.5457 18.1337ZM13.4019 20.3432C12.1157 20.3432 11.0731 19.354 11.0731 18.1337C11.0731 16.9134 12.1157 15.9241 13.4019 15.9241C14.6881 15.9241 15.7307 16.9134 15.7307 18.1337C15.7307 19.354 14.6881 20.3432 13.4019 20.3432Z" fill="#78C081"/>
<path fill-rule="evenodd" clip-rule="evenodd" d="M13.4019 20.8435C13.5475 20.8435 13.6656 20.7315 13.6656 20.5934V15.6739C13.6656 15.5358 13.5475 15.4238 13.4019 15.4238C13.2563 15.4238 13.1382 15.5358 13.1382 15.6739V20.5934C13.1382 20.7315 13.2563 20.8435 13.4019 20.8435Z" fill="#78C081"/>
<path fill-rule="evenodd" clip-rule="evenodd" d="M10.5457 18.1337C10.5457 18.2718 10.6638 18.3838 10.8094 18.3838H15.9944C16.14 18.3838 16.258 18.2718 16.258 18.1337C16.258 17.9955 16.14 17.8835 15.9944 17.8835H10.8094C10.6638 17.8835 10.5457 17.9955 10.5457 18.1337Z" fill="#78C081"/>
<path fill-rule="evenodd" clip-rule="evenodd" d="M11.3823 20.0499C11.4853 20.1476 11.6522 20.1476 11.7552 20.0499L15.4215 16.5713C15.5245 16.4736 15.5245 16.3152 15.4215 16.2175C15.3185 16.1198 15.1516 16.1198 15.0486 16.2175L11.3823 19.6961C11.2793 19.7938 11.2793 19.9522 11.3823 20.0499Z" fill="#78C081"/>
<path fill-rule="evenodd" clip-rule="evenodd" d="M15.4215 20.0499C15.5245 19.9522 15.5245 19.7938 15.4215 19.6961L11.7552 16.2175C11.6522 16.1198 11.4853 16.1198 11.3823 16.2175C11.2793 16.3152 11.2793 16.4736 11.3823 16.5713L15.0486 20.0499C15.1516 20.1476 15.3185 20.1476 15.4215 20.0499Z" fill="#78C081"/>
<path fill-rule="evenodd" clip-rule="evenodd" d="M13.5798 11.5344C13.72 11.497 13.8017 11.3589 13.7623 11.2259L13.7082 11.0434L13.5155 10.3934C13.4404 10.1403 13.1971 9.96523 12.9198 9.96523H7.77568C7.4984 9.96523 7.25504 10.1402 7.18 10.3934L6.9873 11.0434L6.9332 11.2259C6.89377 11.3589 6.97545 11.497 7.11563 11.5344C7.13678 11.5401 7.15806 11.5431 7.17908 11.5437C7.18449 11.5439 7.18988 11.5439 7.19524 11.5437C7.30724 11.5405 7.4089 11.4691 7.44085 11.3614L7.53511 11.0434L7.68764 10.5289C7.69874 10.4914 7.73473 10.4656 7.77568 10.4656H12.9198C12.9607 10.4656 12.9967 10.4914 13.0078 10.5289L13.1604 11.0434L13.2546 11.3613C13.2866 11.4691 13.3882 11.5405 13.5002 11.5437C13.5056 11.5439 13.511 11.5439 13.5164 11.5437C13.5374 11.5431 13.5587 11.5401 13.5798 11.5344Z" fill="#78C081"/>
<path fill-rule="evenodd" clip-rule="evenodd" d="M8.8766 8.32851C8.8766 8.46667 8.99465 8.57868 9.14027 8.57868H11.5552C11.7008 8.57868 11.8189 8.46667 11.8189 8.32851C11.8189 8.19034 11.7008 8.07834 11.5552 8.07834H9.14027C8.99465 8.07834 8.8766 8.19034 8.8766 8.32851Z" fill="#78C081"/>
<path d="M12.9757 8.32851C12.9757 8.47737 12.8485 8.59806 12.6916 8.59806C12.5347 8.59806 12.4075 8.47737 12.4075 8.32851C12.4075 8.17961 12.5347 8.05893 12.6916 8.05893C12.8485 8.05893 12.9757 8.17961 12.9757 8.32851Z" fill="#78C081"/>
<path d="M8.28794 8.32851C8.28794 8.47737 8.16074 8.59806 8.00384 8.59806C7.84694 8.59806 7.71971 8.47737 7.71971 8.32851C7.71971 8.17961 7.84694 8.05893 8.00384 8.05893C8.16074 8.05893 8.28794 8.17961 8.28794 8.32851Z" fill="#78C081"/>
<path fill-rule="evenodd" clip-rule="evenodd" d="M22.8844 11.5344C23.0246 11.497 23.1062 11.3589 23.0668 11.2259L23.0127 11.0434L22.82 10.3934C22.745 10.1402 22.5016 9.96523 22.2243 9.96523H17.0802C16.803 9.96523 16.5596 10.1402 16.4845 10.3934L16.2918 11.0434L16.2377 11.2259C16.1983 11.3589 16.28 11.497 16.4202 11.5344C16.4412 11.5401 16.4624 11.5431 16.4834 11.5437C16.4889 11.5439 16.4945 11.5439 16.5001 11.5437C16.6119 11.5403 16.7135 11.469 16.7454 11.3614L16.8397 11.0434L16.9922 10.5289C17.0033 10.4914 17.0393 10.4656 17.0802 10.4656H22.2243C22.2653 10.4656 22.3013 10.4914 22.3124 10.5289L22.4649 11.0434L22.5592 11.3614C22.5911 11.469 22.6926 11.5403 22.8045 11.5437C22.81 11.5439 22.8156 11.5439 22.8212 11.5437C22.8421 11.5431 22.8633 11.5401 22.8844 11.5344Z" fill="#78C081"/>
<path fill-rule="evenodd" clip-rule="evenodd" d="M18.1811 8.32851C18.1811 8.46667 18.2992 8.57868 18.4448 8.57868H20.8597C21.0054 8.57868 21.1234 8.46667 21.1234 8.32851C21.1234 8.19034 21.0054 8.07834 20.8597 8.07834H18.4448C18.2992 8.07834 18.1811 8.19034 18.1811 8.32851Z" fill="#78C081"/>
<path d="M22.2803 8.32851C22.2803 8.47737 22.1531 8.59806 21.9962 8.59806C21.8393 8.59806 21.7121 8.47737 21.7121 8.32851C21.7121 8.17961 21.8393 8.05893 21.9962 8.05893C22.1531 8.05893 22.2803 8.17961 22.2803 8.32851Z" fill="#78C081"/>
<path d="M17.5925 8.32851C17.5925 8.47737 17.4653 8.59806 17.3084 8.59806C17.1515 8.59806 17.0243 8.47737 17.0243 8.32851C17.0243 8.17961 17.1515 8.05893 17.3084 8.05893C17.4653 8.05893 17.5925 8.17961 17.5925 8.32851Z" fill="#78C081"/>
<path fill-rule="evenodd" clip-rule="evenodd" d="M14.0767 14.8459C14.2223 14.8459 14.3403 14.7339 14.3403 14.5957V14.3456V12.8436C14.3403 12.5193 14.0633 12.2565 13.7215 12.2565H12.5496C12.499 12.2565 12.4581 12.2176 12.4581 12.1697V11.5437V11.2936C12.4581 11.1555 12.3401 11.0435 12.1944 11.0435C12.0488 11.0435 11.9308 11.1555 11.9308 11.2936V11.5437V12.1697C11.9308 12.494 12.2078 12.7568 12.5496 12.7568H13.7215C13.772 12.7568 13.813 12.7957 13.813 12.8436V14.3456V14.5957C13.813 14.7339 13.931 14.8459 14.0767 14.8459Z" fill="#78C081"/>
<path fill-rule="evenodd" clip-rule="evenodd" d="M15.9234 14.8459C16.069 14.8459 16.187 14.7339 16.187 14.5957V14.3456V12.8436C16.187 12.7956 16.228 12.7568 16.2785 12.7568H17.4504C17.7922 12.7568 18.0692 12.494 18.0692 12.1697V11.5437V11.2936C18.0692 11.1555 17.9512 11.0435 17.8056 11.0435C17.6599 11.0435 17.5419 11.1555 17.5419 11.2936V11.5437V12.1697C17.5419 12.2176 17.501 12.2565 17.4504 12.2565H16.2785C15.9367 12.2565 15.6597 12.5194 15.6597 12.8436V14.3456V14.5957C15.6597 14.7339 15.7777 14.8459 15.9234 14.8459Z" fill="#78C081"/>
<path fill-rule="evenodd" clip-rule="evenodd" d="M20.327 21.0457C20.1814 21.0457 20.0634 20.9337 20.0634 20.7956C20.0634 20.6574 20.1814 20.5454 20.327 20.5454H20.5905V19.4284H20.327C20.1814 19.4284 20.0634 19.3164 20.0634 19.1782C20.0634 19.04 20.1814 18.928 20.327 18.928H20.5905V15.1348C20.5905 14.6988 20.2183 14.3456 19.7588 14.3456H16.187V14.5957C16.187 14.7339 16.069 14.8459 15.9234 14.8459C15.7777 14.8459 15.6597 14.7339 15.6597 14.5957V14.3456H14.3403V14.5957C14.3403 14.7339 14.2223 14.8459 14.0767 14.8459C13.931 14.8459 13.813 14.7339 13.813 14.5957V14.3456H12.4076H10.2412C9.78168 14.3456 9.40945 14.6988 9.40945 15.1348V21.1325C9.40945 21.5686 9.78168 21.9217 10.2412 21.9217H10.5457V21.6716C10.5457 21.5334 10.6638 21.4214 10.8094 21.4214C10.955 21.4214 11.0731 21.5334 11.0731 21.6716V21.9217H12.2504V21.6716C12.2504 21.5334 12.3684 21.4214 12.5141 21.4214C12.6597 21.4214 12.7777 21.5334 12.7777 21.6716V21.9217H17.2223V21.6716C17.2223 21.5334 17.3403 21.4214 17.4859 21.4214C17.6316 21.4214 17.7496 21.5334 17.7496 21.6716V21.9217H18.9269V21.6716C18.9269 21.5334 19.045 21.4214 19.1906 21.4214C19.3362 21.4214 19.4543 21.5334 19.4543 21.6716V21.9217H19.7588C20.2183 21.9217 20.5905 21.5685 20.5905 21.1325V21.0457H20.327ZM12.4076 14.846H19.7588C19.9271 14.846 20.0632 14.9751 20.0632 15.1348V21.1325C20.0632 21.2922 19.9271 21.4214 19.7588 21.4214H10.2412C10.0729 21.4214 9.93679 21.2922 9.93679 21.1325V15.1348C9.93679 14.9751 10.0729 14.846 10.2412 14.846H12.4076Z" fill="#78C081"/>
<path d="M13.7623 11.2259C13.8017 11.3589 13.72 11.497 13.5798 11.5344C13.5587 11.5401 13.5374 11.5431 13.5164 11.5437H13.8634C14.3228 11.5437 14.6955 11.1908 14.6955 10.7545V7.78954C14.6955 7.35351 14.323 7.00001 13.8634 7.00001H8.61914H6.8318C6.37248 7.00001 6 7.35361 6 7.78954V10.7545C6 11.1907 6.37269 11.5437 6.8318 11.5437H7.17908C7.15806 11.5431 7.13678 11.5401 7.11563 11.5344C6.97545 11.497 6.89377 11.3589 6.9332 11.2259L6.9873 11.0434H6.8318C6.66372 11.0434 6.52734 10.9141 6.52734 10.7545V7.78954C6.52734 7.62974 6.66393 7.50035 6.8318 7.50035H8.61914H13.8634C14.0317 7.50035 14.1682 7.62984 14.1682 7.78954V10.7545C14.1682 10.914 14.0319 11.0434 13.8634 11.0434H13.7082L13.7623 11.2259Z" fill="#78C081"/>
<path d="M13.2546 11.3613L13.1604 11.0434H7.53511L7.44085 11.3614C7.4089 11.4691 7.30724 11.5405 7.19524 11.5437H11.9308V11.2936C11.9308 11.1555 12.0488 11.0435 12.1944 11.0435C12.3401 11.0435 12.4581 11.1555 12.4581 11.2936V11.5437H13.5002C13.3882 11.5405 13.2866 11.4691 13.2546 11.3613Z" fill="#78C081"/>
<path d="M23.0668 11.2259C23.1062 11.3589 23.0246 11.497 22.8844 11.5344C22.8633 11.5401 22.8421 11.5431 22.8212 11.5437H23.1682C23.6273 11.5437 24 11.1907 24 10.7545V7.78953C24 7.35364 23.6275 7 23.1682 7H16.1366C15.677 7 15.3045 7.35354 15.3045 7.78953V10.7545C15.3045 11.1908 15.6773 11.5437 16.1366 11.5437H16.4834C16.4624 11.5431 16.4412 11.5401 16.4202 11.5344C16.28 11.497 16.1983 11.3589 16.2377 11.2259L16.2918 11.0434H16.1366C15.9681 11.0434 15.8318 10.9141 15.8318 10.7545V7.78953C15.8318 7.62985 15.9683 7.50034 16.1366 7.50034H23.1682C23.3361 7.50034 23.4727 7.62975 23.4727 7.78953V10.7545C23.4727 10.9142 23.3363 11.0434 23.1682 11.0434H23.0127L23.0668 11.2259Z" fill="#78C081"/>
<path d="M22.5592 11.3614L22.4649 11.0434H21.712H16.8397L16.7454 11.3614C16.7135 11.469 16.6119 11.5403 16.5001 11.5437H17.5419V11.2936C17.5419 11.1555 17.6599 11.0435 17.8056 11.0435C17.9512 11.0435 18.0692 11.1555 18.0692 11.2936V11.5437H21.712H22.8045C22.6926 11.5403 22.5911 11.469 22.5592 11.3614Z" fill="#78C081"/>
</g>
<defs>
<clipPath id="clip0_172_1126">
<rect width="18" height="16" fill="white" transform="translate(6 7)"/>
</clipPath>
</defs>
</svg>
