<svg width="30" height="30" viewBox="0 0 30 30" fill="none" xmlns="http://www.w3.org/2000/svg">
<rect width="30" height="30" rx="10" fill="white"/>
<g clip-path="url(#clip0_92_465)">
<path fill-rule="evenodd" clip-rule="evenodd" d="M18.9136 20.4874C18.8983 20.4874 18.886 20.4754 18.886 20.4607V19.8679V19.6116C18.886 19.4721 18.7714 19.3586 18.6288 19.3553C18.6266 19.3553 18.6245 19.3553 18.6224 19.3553C18.6202 19.3553 18.6181 19.3553 18.616 19.3553C18.4733 19.3586 18.3587 19.4721 18.3587 19.6116V19.8679V20.4607C18.3587 20.7586 18.6072 21 18.9136 21H21.2433C21.5497 21 21.7982 20.7586 21.7982 20.4607V19.8679V19.6116C21.7982 19.4721 21.6836 19.3586 21.5409 19.3553C21.5388 19.3553 21.5366 19.3553 21.5345 19.3553C21.5324 19.3553 21.5302 19.3553 21.5281 19.3553C21.3854 19.3586 21.2708 19.4721 21.2708 19.6116V19.8679V20.4607C21.2708 20.4755 21.2585 20.4874 21.2433 20.4874H18.9136Z" fill="#78C081"/>
<path fill-rule="evenodd" clip-rule="evenodd" d="M11.2249 14.1336C11.3279 14.2337 11.4948 14.2337 11.5978 14.1336L13.3231 12.4567C13.3476 12.4328 13.3697 12.4076 13.3892 12.3812C13.5783 12.1251 13.53 11.7646 13.2729 11.5621C13.2715 11.5609 13.27 11.5598 13.2685 11.5586C12.7274 11.1399 12.0651 10.862 11.3409 10.7834C11.3379 10.783 11.3349 10.7827 11.3319 10.7825C11.0036 10.7516 10.7125 10.975 10.6605 11.2826C10.6551 11.3146 10.6523 11.3475 10.6523 11.3812V13.7529C10.6523 13.8944 10.7703 14.0091 10.9159 14.0091C11.0616 14.0091 11.1796 13.8944 11.1796 13.7529V11.3812C11.1796 11.3288 11.2267 11.2868 11.2824 11.2928C11.9048 11.3604 12.4741 11.599 12.94 11.9596C12.9862 11.9953 12.9876 12.0579 12.9502 12.0943L11.2249 13.7712C11.122 13.8712 11.122 14.0335 11.2249 14.1336Z" fill="#78C081"/>
<path fill-rule="evenodd" clip-rule="evenodd" d="M7.16006 14.0211C7.15758 14.0429 7.15631 14.0645 7.15621 14.0859C7.15487 14.3815 7.37606 14.6347 7.67385 14.6822C7.70674 14.6874 7.74057 14.6902 7.77513 14.6902H10.2153C10.3609 14.6902 10.4789 14.5754 10.4789 14.4339C10.4789 14.2924 10.3609 14.1776 10.2153 14.1776H7.77513C7.72133 14.1776 7.67803 14.1319 7.68418 14.0777C7.75378 13.4728 7.9993 12.9194 8.37027 12.4666C8.40703 12.4217 8.47143 12.4203 8.50886 12.4567L10.2341 14.1336C10.3371 14.2337 10.504 14.2337 10.607 14.1336C10.7099 14.0335 10.7099 13.8712 10.607 13.7712L8.88176 12.0943C8.85062 12.064 8.81718 12.0377 8.78204 12.0154C8.57435 11.8833 8.30714 11.8882 8.10439 12.0172C8.05007 12.0517 8.00037 12.0952 7.95769 12.1473C7.52686 12.6733 7.24102 13.3172 7.16006 14.0211Z" fill="#78C081"/>
<path fill-rule="evenodd" clip-rule="evenodd" d="M10.4912 18.0845C10.8231 18.1203 11.1189 17.8956 11.1714 17.5853C11.1768 17.5532 11.1796 17.5203 11.1796 17.4866V15.1149C11.1796 14.9734 11.0616 14.8587 10.9159 14.8587C10.7703 14.8587 10.6523 14.9734 10.6523 15.1149V17.4866C10.6523 17.5389 10.6052 17.581 10.5495 17.575C9.92712 17.5074 9.3578 17.2688 8.89184 16.9082C8.84569 16.8725 8.84427 16.8099 8.88174 16.7735L10.607 15.0966C10.7099 14.9966 10.7099 14.8343 10.607 14.7342C10.504 14.6341 10.337 14.6341 10.2341 14.7342L8.50886 16.411C8.48429 16.4349 8.46228 16.4602 8.44278 16.4866C8.2525 16.7441 8.30244 17.1073 8.56338 17.3092M10.4912 18.0845C9.76705 18.0058 9.10453 17.7279 8.56338 17.3092L10.4912 18.0845Z" fill="#78C081"/>
<path fill-rule="evenodd" clip-rule="evenodd" d="M12.9502 16.7735C12.9747 16.7974 13.0008 16.8188 13.0279 16.8377C13.2929 17.0226 13.6665 16.9741 13.8742 16.7205C14.305 16.1945 14.5908 15.5508 14.6718 14.8469C14.7087 14.5243 14.4775 14.2367 14.1583 14.1856C14.1254 14.1804 14.0914 14.1776 14.0568 14.1776H11.6166C11.471 14.1776 11.353 14.2924 11.353 14.4339C11.353 14.5754 11.471 14.6902 11.6166 14.6902H14.0568C14.1107 14.6902 14.1539 14.736 14.1477 14.7901C14.0781 15.395 13.8326 15.9484 13.4616 16.4012C13.4249 16.446 13.3605 16.4475 13.3231 16.4111L11.5978 14.7342C11.4948 14.6341 11.3279 14.6341 11.2249 14.7342C11.1219 14.8343 11.1219 14.9966 11.2249 15.0966L12.9502 16.7735Z" fill="#78C081"/>
<path fill-rule="evenodd" clip-rule="evenodd" d="M9.95149 14.4339C9.95149 14.9516 10.3833 15.3713 10.9159 15.3713C11.4486 15.3713 11.8804 14.9516 11.8804 14.4339C11.8804 13.9161 11.4486 13.4964 10.9159 13.4964C10.3833 13.4964 9.95149 13.9162 9.95149 14.4339ZM10.9159 14.8587C10.6746 14.8587 10.4789 14.6686 10.4789 14.4339C10.4789 14.1992 10.6746 14.0091 10.9159 14.0091C11.1574 14.0091 11.353 14.1992 11.353 14.4339C11.353 14.6685 11.1574 14.8587 10.9159 14.8587Z" fill="#78C081"/>
<path fill-rule="evenodd" clip-rule="evenodd" d="M19.3836 14.1336C19.4865 14.2337 19.6535 14.2337 19.7565 14.1336L21.4817 12.4567C21.7461 12.1997 21.7148 11.7812 21.4272 11.5586C20.886 11.1398 20.2237 10.862 19.4995 10.7834C19.1333 10.7438 18.8109 11.0214 18.8109 11.3812V13.7529C18.8109 13.8944 18.929 14.0091 19.0746 14.0091C19.2202 14.0091 19.3383 13.8944 19.3383 13.7529V11.3812C19.3383 11.3288 19.3854 11.2867 19.4411 11.2928C20.0635 11.3604 20.6327 11.599 21.0987 11.9596C21.1448 11.9953 21.1463 12.0579 21.1088 12.0943L19.3836 13.7712C19.2806 13.8712 19.2806 14.0335 19.3836 14.1336Z" fill="#78C081"/>
<path fill-rule="evenodd" clip-rule="evenodd" d="M15.3187 14.0211C15.2781 14.3769 15.5636 14.6902 15.9338 14.6902H18.3739C18.5195 14.6902 18.6376 14.5754 18.6376 14.4339C18.6376 14.2924 18.5195 14.1776 18.3739 14.1776H15.9338C15.88 14.1776 15.8367 14.1319 15.8428 14.0777C15.9124 13.4728 16.158 12.9194 16.5289 12.4666C16.5657 12.4217 16.6301 12.4203 16.6675 12.4567L18.3927 14.1336C18.4957 14.2337 18.6627 14.2337 18.7656 14.1336C18.8686 14.0335 18.8686 13.8712 18.7656 13.7712L17.0404 12.0943C16.776 11.8373 16.3453 11.8677 16.1163 12.1473C15.6855 12.6733 15.3997 13.3172 15.3187 14.0211Z" fill="#78C081"/>
<path fill-rule="evenodd" clip-rule="evenodd" d="M18.6499 18.0845C19.016 18.124 19.3383 17.8464 19.3383 17.4866V15.1149C19.3383 14.9734 19.2202 14.8587 19.0746 14.8587C18.929 14.8587 18.8109 14.9734 18.8109 15.1149V17.4866C18.8109 17.5389 18.7639 17.581 18.7081 17.575C18.0858 17.5074 17.5164 17.2688 17.0505 16.9082C17.0043 16.8725 17.0029 16.8099 17.0404 16.7735L18.7656 15.0966C18.8686 14.9966 18.8686 14.8343 18.7656 14.7342C18.6626 14.6341 18.4957 14.6341 18.3927 14.7342L16.6675 16.411C16.4031 16.668 16.4344 17.0866 16.722 17.3092M18.6499 18.0845C17.9257 18.0058 17.2632 17.7279 16.722 17.3092L18.6499 18.0845Z" fill="#78C081"/>
<path fill-rule="evenodd" clip-rule="evenodd" d="M21.1088 16.7735C21.3732 17.0304 21.8038 17.0001 22.0328 16.7205C22.4637 16.1945 22.7495 15.5508 22.8305 14.8469C22.8712 14.491 22.5856 14.1776 22.2154 14.1776H19.7753C19.6297 14.1776 19.5116 14.2924 19.5116 14.4339C19.5116 14.5754 19.6297 14.6902 19.7753 14.6902H22.2154C22.2693 14.6902 22.3125 14.736 22.3064 14.7901C22.2368 15.395 21.9913 15.9484 21.6203 16.4012C21.5836 16.446 21.5192 16.4475 21.4817 16.4111L19.7564 14.7342C19.6535 14.6341 19.4865 14.6341 19.3836 14.7342C19.2806 14.8343 19.2806 14.9966 19.3836 15.0966L21.1088 16.7735Z" fill="#78C081"/>
<path fill-rule="evenodd" clip-rule="evenodd" d="M15.2951 14.4339C15.2951 16.4627 16.9873 18.1074 19.0746 18.1074C21.162 18.1074 22.8541 16.4627 22.8541 14.4339C22.8541 12.4051 21.162 10.7603 19.0746 10.7603C16.9873 10.7603 15.2951 12.4051 15.2951 14.4339ZM19.0746 17.5949C17.2785 17.5949 15.8224 16.1796 15.8224 14.4339C15.8224 12.6881 17.2785 11.2729 19.0746 11.2729C20.8708 11.2729 22.3268 12.6881 22.3268 14.4339C22.3268 16.1796 20.8708 17.5949 19.0746 17.5949Z" fill="#78C081"/>
<path fill-rule="evenodd" clip-rule="evenodd" d="M18.1101 14.4339C18.1101 14.9516 18.542 15.3713 19.0746 15.3713C19.6073 15.3713 20.0391 14.9516 20.0391 14.4339C20.0391 13.9162 19.6073 13.4964 19.0746 13.4964C18.5419 13.4964 18.1101 13.9162 18.1101 14.4339ZM19.0746 14.8587C18.8332 14.8587 18.6376 14.6686 18.6376 14.4339C18.6376 14.1992 18.8332 14.0091 19.0746 14.0091C19.316 14.0091 19.5116 14.1992 19.5116 14.4339C19.5116 14.6686 19.316 14.8587 19.0746 14.8587Z" fill="#78C081"/>
<path fill-rule="evenodd" clip-rule="evenodd" d="M8.20184 20.4607C8.20184 20.7586 8.4503 21 8.75671 21H11.0864C11.3928 21 11.6413 20.7586 11.6413 20.4607V19.8679V19.6116C11.6413 19.4721 11.5267 19.3586 11.384 19.3553C11.3819 19.3553 11.3798 19.3553 11.3776 19.3553C11.3755 19.3553 11.3734 19.3553 11.3712 19.3553C11.2286 19.3586 11.114 19.4721 11.114 19.6116V19.8679V20.4607C11.114 20.4754 11.1017 20.4874 11.0864 20.4874H8.75671C8.74151 20.4874 8.72918 20.4755 8.72918 20.4607V19.8679V19.6116C8.72918 19.4721 8.61457 19.3586 8.47191 19.3553C8.46978 19.3553 8.46765 19.3553 8.46551 19.3553C8.46337 19.3553 8.46124 19.3553 8.45911 19.3553C8.31645 19.3586 8.20184 19.4721 8.20184 19.6116V19.8679V20.4607Z" fill="#78C081"/>
<path fill-rule="evenodd" clip-rule="evenodd" d="M13.8793 17.8511C13.8793 17.9927 13.9973 18.1074 14.1429 18.1074H15.8476C15.9932 18.1074 16.1113 17.9927 16.1113 17.8511C16.1113 17.7096 15.9932 17.5949 15.8476 17.5949H14.1429C13.9973 17.5949 13.8793 17.7096 13.8793 17.8511Z" fill="#78C081"/>
<path d="M18.3587 19.6116C18.3587 19.4721 18.4733 19.3586 18.616 19.3553H13.4787H11.384C11.5267 19.3586 11.6413 19.4721 11.6413 19.6116V19.8679H13.4787H18.3587V19.6116Z" fill="#78C081"/>
<path d="M11.114 19.6116C11.114 19.4721 11.2286 19.3586 11.3712 19.3553H8.47191C8.61457 19.3586 8.72918 19.4721 8.72918 19.6116V19.8679H11.114V19.6116Z" fill="#78C081"/>
<path d="M18.886 19.6116V19.8679H21.2708V19.6116C21.2708 19.4721 21.3854 19.3586 21.5281 19.3553H18.6288C18.7714 19.3586 18.886 19.4721 18.886 19.6116Z" fill="#78C081"/>
<path d="M6.97383 19.3553C6.72754 19.3553 6.52734 19.1609 6.52734 18.921V9.94652C6.52734 9.7068 6.72737 9.51256 6.97383 9.51256H18.989H23.0262C23.2726 9.51256 23.4727 9.7068 23.4727 9.94652V18.921C23.4727 19.1609 23.2725 19.3553 23.0262 19.3553H21.5409C21.6836 19.3586 21.7982 19.4721 21.7982 19.6116V19.8679H23.0262C23.5639 19.8679 24 19.4438 24 18.921V9.94652C24 9.42356 23.5637 9 23.0262 9H18.989H6.97383C6.4363 9 6 9.42356 6 9.94652V18.921C6 19.4438 6.43613 19.8679 6.97383 19.8679H8.20184V19.6116C8.20184 19.4721 8.31645 19.3586 8.45911 19.3553H6.97383Z" fill="#78C081"/>
<path d="M10.6605 11.2826C10.7125 10.975 11.0036 10.7516 11.3319 10.7825C11.1953 10.7679 11.0565 10.7605 10.9159 10.7605C10.6106 10.7605 10.3128 10.7957 10.0278 10.8626C9.19281 11.0982 8.56103 11.5173 8.10439 12.0172C8.30714 11.8882 8.57435 11.8833 8.78204 12.0154C9.14052 11.7104 9.59329 11.474 10.1517 11.3608C10.3164 11.3221 10.4865 11.2957 10.6605 11.2826Z" fill="#78C081"/>
<path d="M13.2729 11.5621C13.53 11.7646 13.5783 12.1251 13.3892 12.3812C13.8231 12.8746 14.1035 13.4994 14.1583 14.1856C14.4775 14.2367 14.7087 14.5243 14.6718 14.8469C14.5908 15.5508 14.305 16.1945 13.8742 16.7205C13.6665 16.9741 13.2929 17.0226 13.0279 16.8377C12.5203 17.2595 11.8774 17.5319 11.1714 17.5853C11.1189 17.8956 10.8231 18.1203 10.4912 18.0845C9.76705 18.0058 9.10453 17.7279 8.56338 17.3092C8.30244 17.1073 8.2525 16.7441 8.44278 16.4866C8.00899 15.9932 7.72872 15.3685 7.67385 14.6822C7.37606 14.6347 7.15487 14.3815 7.15621 14.0859C7.14305 14.2046 7.13661 14.3209 7.13661 14.4338C7.13661 16.4629 8.82859 18.1074 10.9159 18.1074C13.0032 18.1074 14.6956 16.4629 14.6956 14.4338C14.6956 13.2714 14.14 12.2351 13.2729 11.5621Z" fill="#78C081"/>
</g>
<defs>
<clipPath id="clip0_92_465">
<rect width="18" height="12" fill="white" transform="translate(6 9)"/>
</clipPath>
</defs>
</svg>
