<svg width="30" height="30" viewBox="0 0 30 30" fill="none" xmlns="http://www.w3.org/2000/svg">
<rect width="30" height="30" rx="10" fill="white"/>
<g clip-path="url(#clip0_92_436)">
<path d="M15 6.5625C13.3312 6.5625 11.6999 7.05735 10.3124 7.98448C8.92484 8.9116 7.84338 10.2294 7.20477 11.7711C6.56616 13.3129 6.39907 15.0094 6.72463 16.6461C7.05019 18.2828 7.85378 19.7862 9.03379 20.9662C10.2138 22.1462 11.7172 22.9498 13.3539 23.2754C14.9906 23.6009 16.6871 23.4338 18.2289 22.7952C19.7706 22.1566 21.0884 21.0752 22.0155 19.6876C22.9427 18.3001 23.4375 16.6688 23.4375 15C23.435 12.763 22.5452 10.6184 20.9634 9.03658C19.3816 7.45479 17.237 6.56503 15 6.5625ZM15 22.875C13.4425 22.875 11.9199 22.4131 10.6249 21.5478C9.32985 20.6825 8.32049 19.4526 7.72445 18.0136C7.12841 16.5747 6.97246 14.9913 7.27632 13.4637C7.58018 11.9361 8.3302 10.5329 9.43154 9.43153C10.5329 8.3302 11.9361 7.58017 13.4637 7.27632C14.9913 6.97246 16.5747 7.12841 18.0136 7.72445C19.4526 8.32049 20.6825 9.32985 21.5478 10.6249C22.4131 11.9199 22.875 13.4425 22.875 15C22.8727 17.0879 22.0422 19.0895 20.5659 20.5659C19.0895 22.0422 17.0879 22.8727 15 22.875Z" fill="#78C081"/>
<path d="M15 8.8125C13.7762 8.8125 12.5799 9.17539 11.5624 9.85528C10.5449 10.5352 9.75182 11.5015 9.2835 12.6321C8.81518 13.7628 8.69265 15.0069 8.93139 16.2071C9.17014 17.4074 9.75944 18.5099 10.6248 19.3752C11.4901 20.2406 12.5926 20.8299 13.7929 21.0686C14.9931 21.3074 16.2372 21.1848 17.3679 20.7165C18.4985 20.2482 19.4648 19.4551 20.1447 18.4376C20.8246 17.4201 21.1875 16.2238 21.1875 15C21.1857 13.3595 20.5332 11.7868 19.3732 10.6268C18.2132 9.46683 16.6405 8.81435 15 8.8125ZM15 20.625C13.8875 20.625 12.7999 20.2951 11.8749 19.677C10.9499 19.0589 10.2289 18.1804 9.80318 17.1526C9.37744 16.1248 9.26604 14.9938 9.48309 13.9026C9.70013 12.8115 10.2359 11.8092 11.0225 11.0225C11.8092 10.2359 12.8115 9.70012 13.9026 9.48308C14.9938 9.26604 16.1248 9.37743 17.1526 9.80318C18.1804 10.2289 19.0589 10.9499 19.677 11.8749C20.2951 12.7999 20.625 13.8875 20.625 15C20.6233 16.4913 20.0301 17.9211 18.9756 18.9756C17.9211 20.0301 16.4913 20.6233 15 20.625Z" fill="#78C081"/>
<path d="M16.3324 13.9682C16.282 13.9031 16.2269 13.8417 16.1677 13.7845C16.2626 13.5063 16.3938 13.2418 16.5578 12.9978C16.6463 12.8695 16.7268 12.7569 16.799 12.6558C17.1399 12.1786 17.3456 11.8904 17.3456 11.3965C17.3456 10.6835 16.5032 9.91401 15.1424 9.91401C14.7578 9.89415 14.3737 9.96231 14.0193 10.1133C13.665 10.2643 13.3498 10.4941 13.0977 10.7854C12.8892 11.0137 12.7472 11.2948 12.6872 11.5981C12.6273 11.9015 12.6517 12.2155 12.7577 12.506L13.4395 14.3598C13.4082 14.4367 13.3828 14.5158 13.3633 14.5965C13.0749 14.6533 12.7803 14.672 12.487 14.6521C12.3316 14.6395 12.1938 14.6262 12.0701 14.6141C11.4866 14.5575 11.1342 14.5232 10.7066 14.7704C10.531 14.888 10.3863 15.0462 10.2847 15.2316C10.1832 15.4169 10.1277 15.624 10.1231 15.8353C10.0892 16.3923 10.2294 16.946 10.5243 17.4197C10.6994 17.7627 10.9505 18.0613 11.2584 18.2927C11.5664 18.5241 11.9231 18.6822 12.3013 18.7549C12.4215 18.7777 12.5435 18.7893 12.6658 18.7895C12.9129 18.7926 13.1575 18.7403 13.3817 18.6363C13.6059 18.5324 13.8039 18.3796 13.9612 18.189L15.2268 16.6706C15.309 16.6596 15.3902 16.6427 15.4698 16.6198C15.6633 16.8406 15.8265 17.0862 15.9551 17.3501C16.022 17.491 16.0793 17.6169 16.1306 17.7301C16.3736 18.2639 16.5201 18.5861 16.9479 18.8331C17.1109 18.9238 17.2949 18.97 17.4814 18.9669C18.0803 18.9669 18.8219 18.5522 19.3334 17.6664C19.543 17.3432 19.676 16.9764 19.7224 16.594C19.7688 16.2116 19.7273 15.8237 19.6011 15.4598C19.5077 15.165 19.3352 14.9015 19.1025 14.6979C18.8698 14.4944 18.5857 14.3585 18.2811 14.3051L16.3324 13.9682ZM15 16.125C14.7775 16.125 14.56 16.059 14.375 15.9354C14.19 15.8118 14.0458 15.6361 13.9607 15.4305C13.8755 15.225 13.8532 14.9988 13.8966 14.7805C13.94 14.5623 14.0472 14.3618 14.2045 14.2045C14.3619 14.0472 14.5623 13.94 14.7805 13.8966C14.9988 13.8532 15.225 13.8755 15.4305 13.9606C15.6361 14.0458 15.8118 14.19 15.9354 14.375C16.059 14.56 16.125 14.7775 16.125 15C16.1247 15.2983 16.0061 15.5842 15.7951 15.7951C15.5842 16.006 15.2983 16.1247 15 16.125ZM13.5246 11.1516C13.7241 10.9222 13.9739 10.7419 14.2545 10.6248C14.5351 10.5078 14.839 10.457 15.1424 10.4766C16.1989 10.4766 16.7831 11.0206 16.7831 11.3966C16.7831 11.6969 16.6842 11.8488 16.3413 12.3289C16.2676 12.4322 16.1854 12.5471 16.095 12.6783C15.9298 12.9226 15.7928 13.1849 15.6869 13.4602C15.3799 13.3221 15.0386 13.2796 14.7072 13.3381C14.3758 13.3966 14.0697 13.5534 13.8285 13.7881L13.2857 12.3119C13.2157 12.1151 13.201 11.9029 13.2431 11.6984C13.2852 11.4939 13.3826 11.3048 13.5246 11.1516ZM13.5291 17.8288C13.3937 17.9878 13.2173 18.1066 13.0192 18.1724C12.821 18.2381 12.6086 18.2484 12.405 18.202C12.1066 18.1439 11.8255 18.0177 11.5838 17.8332C11.3421 17.6487 11.1462 17.4109 11.0114 17.1383C10.7785 16.7628 10.6642 16.3258 10.6834 15.8842C10.6835 15.7636 10.711 15.6445 10.7637 15.536C10.8165 15.4275 10.8931 15.3323 10.9878 15.2576C11.2478 15.1071 11.4289 15.1171 12.0158 15.174C12.1422 15.1862 12.2828 15.1999 12.4417 15.2127C12.7355 15.2339 13.0308 15.2214 13.3217 15.1755C13.3574 15.5099 13.4919 15.826 13.7082 16.0835C13.9244 16.341 14.2125 16.5282 14.5357 16.6211L13.5291 17.8288ZM19.0705 15.6463C19.1694 15.9339 19.2007 16.2404 19.1618 16.542C19.1229 16.8436 19.0149 17.1322 18.8462 17.3852C18.3182 18.2998 17.5545 18.5339 17.2292 18.3459C16.9691 18.1958 16.8871 18.0343 16.6427 17.4972C16.5902 17.3816 16.5317 17.2531 16.4634 17.1091C16.3341 16.8437 16.1751 16.5938 15.9893 16.3642C16.2631 16.1682 16.4712 15.8941 16.5865 15.5777C16.7018 15.2614 16.7188 14.9176 16.6354 14.5914L18.1851 14.8594C18.3905 14.8972 18.5816 14.9905 18.7377 15.1292C18.8938 15.2679 19.0089 15.4468 19.0705 15.6463V15.6463Z" fill="#78C081"/>
<path d="M15 8.25C15.1553 8.25 15.2812 8.12408 15.2812 7.96875C15.2812 7.81342 15.1553 7.6875 15 7.6875C14.8447 7.6875 14.7188 7.81342 14.7188 7.96875C14.7188 8.12408 14.8447 8.25 15 8.25Z" fill="#78C081"/>
<path d="M15 22.3125C15.1553 22.3125 15.2812 22.1866 15.2812 22.0312C15.2812 21.8759 15.1553 21.75 15 21.75C14.8447 21.75 14.7188 21.8759 14.7188 22.0312C14.7188 22.1866 14.8447 22.3125 15 22.3125Z" fill="#78C081"/>
<path d="M7.96875 15.2812C8.12408 15.2812 8.25 15.1553 8.25 15C8.25 14.8447 8.12408 14.7188 7.96875 14.7188C7.81342 14.7188 7.6875 14.8447 7.6875 15C7.6875 15.1553 7.81342 15.2812 7.96875 15.2812Z" fill="#78C081"/>
<path d="M22.0312 15.2812C22.1866 15.2812 22.3125 15.1553 22.3125 15C22.3125 14.8447 22.1866 14.7188 22.0312 14.7188C21.8759 14.7188 21.75 14.8447 21.75 15C21.75 15.1553 21.8759 15.2812 22.0312 15.2812Z" fill="#78C081"/>
</g>
<defs>
<clipPath id="clip0_92_436">
<rect width="18" height="18" fill="white" transform="translate(6 6)"/>
</clipPath>
</defs>
</svg>
