<svg width="30" height="30" viewBox="0 0 30 30" fill="none" xmlns="http://www.w3.org/2000/svg">
<rect width="30" height="30" rx="10" fill="white"/>
<g clip-path="url(#clip0_92_444)">
<path d="M24.4617 16.6121V16.5833L24.3594 16.4765L21.1188 12.182V7.25387L20.8376 6.95996H9.34603L9.06478 7.25387V12.1821L5.82461 16.476L5.72183 16.5834V16.6122L5.69873 16.6427L5.72183 16.6617V18.2025C5.72219 18.54 5.85065 18.8636 6.07904 19.1023C6.30743 19.3409 6.61708 19.4752 6.94007 19.4756H23.2435C23.5665 19.4752 23.8761 19.3409 24.1045 19.1022C24.3329 18.8636 24.4613 18.54 24.4617 18.2025V16.6617L24.4848 16.6427L24.4617 16.6121ZM9.62728 7.54777H20.5563V11.9909H9.62728V7.54777ZM9.48188 12.5787H20.7016L23.5018 16.2895H6.68174L9.48188 12.5787ZM23.8992 18.2027C23.8991 18.3844 23.8299 18.5586 23.707 18.687C23.5841 18.8155 23.4174 18.8878 23.2435 18.8879H6.94007C6.76619 18.8878 6.59948 18.8155 6.47654 18.6871C6.35359 18.5586 6.28446 18.3844 6.28433 18.2027V16.8774H23.8992V18.2027Z" fill="#78C081"/>
<path d="M11.949 9.03735L11.6677 9.33126V11.0518L11.949 11.3457H18.2355L18.5168 11.0518V9.33126L18.2355 9.03735H11.949ZM17.9543 10.7578H12.2302V9.62517H17.9543V10.7578Z" fill="#78C081"/>
<path d="M12.112 21.1246C12.1254 20.9391 12.2943 20.7167 12.5622 20.418L12.1518 20.016C11.4264 20.8245 11.3054 21.2902 12.073 22.2939C12.306 22.5986 12.4012 22.8747 12.3559 23.1145C12.2926 23.4501 11.9683 23.6417 11.965 23.6436L12.0999 23.9019L12.2331 24.1608C12.2556 24.148 12.7877 23.8429 12.9064 23.2367C12.9884 22.817 12.856 22.3765 12.5125 21.9275C12.2189 21.5431 12.0992 21.3031 12.112 21.1246Z" fill="#78C081"/>
<path d="M14.9649 21.1246C14.9783 20.939 15.1472 20.7166 15.4151 20.418L15.0047 20.016C14.2793 20.8245 14.1584 21.2902 14.9259 22.2939C15.1589 22.5986 15.2541 22.8747 15.2089 23.1146C15.1455 23.4501 14.8213 23.6418 14.818 23.6437L14.9528 23.902L15.0861 24.1609C15.1086 24.1481 15.6407 23.843 15.7593 23.2368C15.8415 22.8171 15.709 22.3765 15.3655 21.9275C15.0717 21.5431 14.952 21.3031 14.9649 21.1246Z" fill="#78C081"/>
<path d="M17.8174 21.1246C17.8307 20.939 17.9996 20.7166 18.2675 20.418L17.8572 20.016C17.1317 20.8245 17.0108 21.2902 17.7783 22.2939C18.0113 22.5986 18.1065 22.8747 18.0613 23.1146C17.998 23.4501 17.6737 23.6418 17.6704 23.6437L17.8053 23.902L17.9385 24.1609C17.9611 24.1481 18.4931 23.843 18.6118 23.2368C18.6939 22.8171 18.5614 22.3765 18.2179 21.9275C17.9242 21.5431 17.8045 21.3031 17.8174 21.1246Z" fill="#78C081"/>
<path d="M18.6364 17.8896C18.6364 18.1394 18.4329 18.3419 18.1818 18.3419C17.9308 18.3419 17.7273 18.1394 17.7273 17.8896C17.7273 17.6397 17.9308 17.4372 18.1818 17.4372C18.4329 17.4372 18.6364 17.6397 18.6364 17.8896Z" fill="#78C081"/>
<path d="M20.4545 17.8896C20.4545 18.1394 20.251 18.3419 20 18.3419C19.7489 18.3419 19.5454 18.1394 19.5454 17.8896C19.5454 17.6397 19.7489 17.4372 20 17.4372C20.251 17.4372 20.4545 17.6397 20.4545 17.8896Z" fill="#78C081"/>
<path d="M22.2727 17.8896C22.2727 18.1394 22.0692 18.3419 21.8182 18.3419C21.5672 18.3419 21.3636 18.1394 21.3636 17.8896C21.3636 17.6397 21.5672 17.4372 21.8182 17.4372C22.0692 17.4372 22.2727 17.6397 22.2727 17.8896Z" fill="#78C081"/>
</g>
<defs>
<clipPath id="clip0_92_444">
<rect width="20" height="19" fill="white" transform="translate(5 6)"/>
</clipPath>
</defs>
</svg>
