<svg width="30" height="30" viewBox="0 0 30 30" fill="none" xmlns="http://www.w3.org/2000/svg">
<rect width="30" height="30" rx="10" fill="white"/>
<g clip-path="url(#clip0_92_431)">
<path d="M23.844 19.0965L21.999 18.174L20.8247 15.1196C20.8109 15.0835 20.7898 15.0506 20.7627 15.023C20.7356 14.9954 20.7031 14.9737 20.6672 14.9593L13.3815 12.0469C13.3305 12.0266 13.2748 12.0217 13.221 12.0327C13.1673 12.0437 13.118 12.0701 13.0791 12.1088L12.1074 13.0805C12.0692 13.1194 12.0432 13.1686 12.0325 13.222C12.0218 13.2754 12.0268 13.3308 12.0469 13.3815L14.9593 20.6672C14.9737 20.7031 14.9954 20.7356 15.023 20.7627C15.0506 20.7898 15.0835 20.8109 15.1196 20.8247L18.174 21.999L19.0965 23.844C19.1159 23.8846 19.1448 23.9201 19.1808 23.9472C19.2168 23.9744 19.2587 23.9925 19.3032 24C19.3181 24.0014 19.3332 24.0014 19.3482 24C19.4226 23.9997 19.494 23.9699 19.5465 23.9171L23.9171 19.5465C23.9493 19.5154 23.9736 19.4772 23.988 19.4348C24.0024 19.3925 24.0066 19.3474 24.0001 19.3032C23.9925 19.2587 23.9744 19.2168 23.9472 19.1808C23.9201 19.1448 23.8846 19.1159 23.844 19.0965ZM12.6361 13.3449L12.7922 13.1902L16.419 16.8169C16.1799 17.1556 16.0767 17.5716 16.1297 17.9828C16.1827 18.3939 16.388 18.7702 16.705 19.0372C17.0221 19.3043 17.4278 19.4426 17.842 19.4249C18.2561 19.4072 18.6485 19.2348 18.9416 18.9416C19.2348 18.6485 19.4072 18.2561 19.4249 17.8419C19.4426 17.4278 19.3043 17.0221 19.0372 16.705C18.7702 16.388 18.3939 16.1827 17.9828 16.1297C17.5717 16.0767 17.1556 16.1799 16.8169 16.419L13.1902 12.7922L13.3449 12.6361L20.3438 15.436L21.4477 18.3075L18.3076 21.4477L15.436 20.3438L12.6361 13.3449ZM17.7704 16.6777C18.0231 16.6781 18.268 16.7661 18.4631 16.9267C18.6583 17.0874 18.7917 17.3107 18.8407 17.5587C18.8897 17.8067 18.8511 18.0639 18.7317 18.2867C18.6122 18.5095 18.4193 18.6839 18.1856 18.7804C17.9519 18.8768 17.6921 18.8893 17.4503 18.8156C17.2085 18.7419 16.9997 18.5867 16.8595 18.3764C16.7193 18.166 16.6564 17.9136 16.6815 17.6621C16.7065 17.4105 16.818 17.1755 16.9969 16.9969C17.2023 16.7922 17.4804 16.6774 17.7704 16.6777ZM19.4255 23.2435L18.7224 21.8372L21.8344 18.7252L23.2407 19.4283L19.4255 23.2435Z" fill="#78C081"/>
<path d="M11.379 21.047C11.3253 20.9961 11.2541 20.9678 11.1801 20.9678C11.1061 20.9678 11.0349 20.9961 10.9811 21.047L10.6239 21.4042C9.6707 20.1105 9.14486 18.5516 9.11965 16.9449C9.09444 15.3382 9.57112 13.7637 10.4833 12.4407C10.7565 12.5911 11.0712 12.6489 11.38 12.6053C11.6889 12.5618 11.9754 12.4194 12.1965 12.1994C12.4176 11.9794 12.5615 11.6937 12.6065 11.385C12.6516 11.0764 12.5954 10.7615 12.4464 10.4874C13.7693 9.5753 15.3439 9.09862 16.9506 9.12383C18.5573 9.14904 20.1161 9.67488 21.4098 10.6281L21.047 10.981C20.9947 11.0338 20.9654 11.105 20.9654 11.1793C20.9652 11.2163 20.9723 11.253 20.9863 11.2873C21.0003 11.3216 21.0209 11.3527 21.047 11.379L22.2873 12.6095C22.34 12.6619 22.4113 12.6913 22.4856 12.6913C22.5599 12.6913 22.6312 12.6619 22.6839 12.6095L23.9172 11.3762C23.9433 11.3501 23.9641 11.319 23.9782 11.2849C23.9924 11.2508 23.9997 11.2142 23.9997 11.1772C23.9997 11.1402 23.9924 11.1036 23.9782 11.0695C23.9641 11.0354 23.9433 11.0043 23.9172 10.9782L22.6839 9.74494C22.6312 9.69255 22.5599 9.66315 22.4856 9.66315C22.4113 9.66315 22.34 9.69255 22.2873 9.74494L21.8106 10.2188C20.6357 9.33473 19.2466 8.77926 17.7861 8.60948C16.3255 8.4397 14.8461 8.66172 13.4997 9.25275L15.1211 7.63556C15.3049 7.72341 15.5139 7.74329 15.711 7.69169C15.9082 7.64008 16.0806 7.52033 16.1978 7.35366C16.315 7.187 16.3694 6.98421 16.3514 6.78126C16.3333 6.57831 16.2439 6.38832 16.099 6.24501C15.9542 6.10169 15.7633 6.01431 15.5602 5.99837C15.357 5.98243 15.1548 6.03895 14.9894 6.15792C14.824 6.27688 14.7061 6.4506 14.6565 6.64824C14.607 6.84589 14.6291 7.05468 14.7189 7.23759L11.9823 9.97837C11.7045 9.79199 11.3705 9.70786 11.0375 9.74035C10.7045 9.77285 10.3931 9.91995 10.1566 10.1565C9.91999 10.3931 9.77289 10.7045 9.74039 11.0375C9.7079 11.3705 9.79203 11.7044 9.97841 11.9823L7.23763 14.7188C7.05401 14.6294 6.84461 14.6079 6.64664 14.6582C6.44868 14.7086 6.27497 14.8274 6.15638 14.9938C6.03779 15.1601 5.98201 15.3631 5.99894 15.5666C6.01588 15.7702 6.10443 15.9611 6.24887 16.1056C6.3933 16.25 6.58427 16.3386 6.78783 16.3555C6.99139 16.3724 7.19437 16.3166 7.36068 16.1981C7.527 16.0795 7.64589 15.9058 7.69622 15.7078C7.74656 15.5098 7.72508 15.3004 7.6356 15.1168L9.25701 13.4996C8.66539 14.8457 8.44266 16.3249 8.6117 17.7854C8.78074 19.246 9.33545 20.6353 10.2189 21.8106L9.74357 22.2873C9.69119 22.34 9.66179 22.4113 9.66179 22.4856C9.66179 22.5599 9.69119 22.6311 9.74357 22.6838L10.9769 23.9171C11.0294 23.9699 11.1007 23.9998 11.1751 24.0001C11.2122 24.0001 11.249 23.9928 11.2833 23.9786C11.3175 23.9643 11.3487 23.9434 11.3748 23.9171L12.6095 22.6838C12.6619 22.6311 12.6913 22.5599 12.6913 22.4856C12.6913 22.4113 12.6619 22.34 12.6095 22.2873L11.379 21.047ZM22.4884 10.3384L23.3237 11.1737L22.4884 12.009L21.6531 11.1737L22.4884 10.3384ZM15.2814 6.65119C15.3232 6.60905 15.3765 6.58028 15.4347 6.56853C15.4929 6.55677 15.5532 6.56256 15.6081 6.58516C15.663 6.60776 15.7099 6.64615 15.7429 6.69546C15.7759 6.74477 15.7936 6.80278 15.7936 6.86212C15.7936 6.92147 15.7759 6.97948 15.7429 7.02879C15.7099 7.0781 15.663 7.11649 15.6081 7.13909C15.5532 7.16169 15.4929 7.16747 15.4347 7.15572C15.3765 7.14396 15.3232 7.11519 15.2814 7.07306C15.2537 7.04537 15.2317 7.01249 15.2167 6.9763C15.2017 6.9401 15.1939 6.9013 15.1939 6.86212C15.1939 6.82294 15.2017 6.78414 15.2167 6.74795C15.2317 6.71176 15.2537 6.67887 15.2814 6.65119ZM10.5564 10.5563C10.6381 10.4743 10.7351 10.4092 10.842 10.3647C10.9489 10.3203 11.0636 10.2974 11.1794 10.2974C11.2951 10.2974 11.4098 10.3203 11.5167 10.3647C11.6236 10.4092 11.7207 10.4743 11.8023 10.5563C11.9258 10.6796 12.0099 10.8367 12.044 11.0078C12.0782 11.1789 12.0608 11.3562 11.9941 11.5174C11.9274 11.6786 11.8144 11.8164 11.6694 11.9133C11.5243 12.0103 11.3538 12.062 11.1794 12.062C11.0049 12.062 10.8344 12.0103 10.6893 11.9133C10.5443 11.8164 10.4313 11.6786 10.3646 11.5174C10.2979 11.3562 10.2805 11.1789 10.3147 11.0078C10.3488 10.8367 10.4329 10.6796 10.5564 10.5563ZM7.07451 15.7032C7.01709 15.7511 6.94384 15.7758 6.86915 15.7724C6.79446 15.769 6.72374 15.7378 6.67087 15.685C6.618 15.6321 6.58682 15.5614 6.58345 15.4867C6.58007 15.412 6.60475 15.3388 6.65263 15.2813C6.70891 15.226 6.78466 15.195 6.86357 15.195C6.94248 15.195 7.01823 15.226 7.07451 15.2813C7.10223 15.309 7.12422 15.3419 7.13923 15.3781C7.15423 15.4143 7.16196 15.4531 7.16196 15.4923C7.16196 15.5315 7.15423 15.5703 7.13923 15.6065C7.12422 15.6426 7.10223 15.6755 7.07451 15.7032ZM11.1794 23.3153L10.344 22.4799L11.1794 21.6446L12.0147 22.4799L11.1794 23.3153Z" fill="#78C081"/>
</g>
<defs>
<clipPath id="clip0_92_431">
<rect width="18" height="18" fill="white" transform="translate(6 6)"/>
</clipPath>
</defs>
</svg>
