<svg width="30" height="30" viewBox="0 0 30 30" fill="none" xmlns="http://www.w3.org/2000/svg">
<rect width="30" height="30" rx="10" fill="white"/>
<g clip-path="url(#clip0_92_454)">
<path d="M17.3077 6.81824C18.6788 6.81824 23.1819 14.2843 23.1819 17.1532C23.1819 20.4827 20.5519 23.1819 17.3077 23.1819C16.5427 23.1819 15.7973 23.0315 15.1027 22.7426C14.8879 22.6533 14.7844 22.4022 14.8714 22.1818C14.9585 21.9613 15.2031 21.8551 15.4179 21.9444C16.0127 22.1918 16.6512 22.3206 17.3077 22.3206C20.0885 22.3206 22.3427 19.9723 22.3427 17.1532C22.2495 14.1515 18.1217 8.14971 17.275 7.68594C16.4042 8.17871 13.7139 12.6748 13.0375 14.3224C12.9445 14.5402 12.697 14.6394 12.4848 14.5438C12.2725 14.4483 12.176 14.1943 12.269 13.9765C13.0375 11.9741 16.1117 6.92431 17.3077 6.81824ZM15.2098 20.1675C15.4416 20.1675 15.6294 20.3603 15.6294 20.5981C15.6294 20.819 15.4653 21.0288 15.2098 21.0288C14.5649 21.0288 14.0672 21.89 13.1131 21.89C12.159 21.89 11.6742 21.0288 11.014 21.0288C10.3539 21.0288 9.88189 21.89 8.91614 21.89C8.2451 21.89 7.58717 21.5524 6.94415 20.9057C6.77864 20.7393 6.77595 20.4666 6.93814 20.2967C7.10033 20.1269 7.36598 20.1241 7.53148 20.2906C8.03027 20.7922 8.49125 21.0288 8.91614 21.0288C9.50446 21.0288 10.0424 20.1674 11.014 20.1675C11.9856 20.1676 12.4809 21.0288 13.1108 21.0288C13.7407 21.0288 14.1807 20.1676 15.2098 20.1675ZM11.6098 17.545C12.6203 17.545 13.1079 18.4063 13.7118 18.4063C14.1341 18.4105 14.5932 18.175 15.091 17.6695C15.2557 17.5023 15.5214 17.5037 15.6844 17.6728C15.8473 17.8419 15.8459 18.1145 15.6812 18.2818C15.0372 18.9356 14.3782 19.2675 13.7037 19.2675C12.7326 19.2675 12.2751 18.4063 11.6098 18.4063C10.9445 18.4063 10.4744 19.2676 9.51307 19.2675C8.55171 19.2674 8.07704 18.4063 7.41404 18.4063C7.18231 18.4063 6.99446 18.2135 6.99446 17.9757C6.99446 17.7378 7.18231 17.545 7.41404 17.545C8.41841 17.5451 8.89574 18.4062 9.51082 18.4063C10.1259 18.4063 10.5994 17.5451 11.6098 17.545ZM15.2098 15.0001C15.4416 15.0001 15.6294 15.1929 15.6294 15.4307C15.6294 15.6515 15.4523 15.8613 15.2098 15.8613C14.5135 15.8613 14.0952 16.7199 13.1131 16.7226C12.1309 16.7252 11.6836 15.8613 11.014 15.8613C10.3444 15.8613 9.90081 16.7225 8.91614 16.7226C8.24507 16.7226 7.58717 16.3849 6.94415 15.7382C6.77864 15.5718 6.77595 15.2991 6.93814 15.1293C7.10033 14.9594 7.36598 14.9567 7.53148 15.1231C8.03027 15.6247 8.49125 15.8613 8.91614 15.8613C9.52481 15.8584 10.0236 15.0001 11.014 15.0001C12.0045 15.0001 12.4848 15.863 13.1108 15.8613C13.7369 15.8596 14.2048 15.0001 15.2098 15.0001Z" fill="#78C081"/>
</g>
<defs>
<clipPath id="clip0_92_454">
<rect width="18" height="18" fill="white" transform="translate(6 6)"/>
</clipPath>
</defs>
</svg>
